<?xml version="1.0" standalone="no"?>
<!DOCTYPE svg PUBLIC "-//W3C//DTD SVG 20010904//EN"
 "http://www.w3.org/TR/2001/REC-SVG-20010904/DTD/svg10.dtd">
<svg version="1.0" xmlns="http://www.w3.org/2000/svg"
 width="2830.000000pt" height="2830.000000pt" viewBox="0 0 2830.000000 2830.000000"
 preserveAspectRatio="xMidYMid meet">
<metadata>
Created by potrace 1.14, written by Peter Selinger 2001-2017
</metadata>
<g transform="translate(0.000000,2830.000000) scale(0.100000,-0.100000)"
fill="#000000" stroke="none">
<path d="M13547 27895 c-1 -2 -56 -6 -122 -9 -66 -4 -133 -9 -149 -11 -15 -2
-99 -6 -185 -10 -213 -8 -287 -14 -351 -25 -53 -9 -124 -15 -281 -25 -42 -2
-88 -9 -103 -15 -25 -9 -82 -15 -221 -25 -33 -2 -81 -8 -106 -14 -49 -11 -89
-17 -183 -26 -32 -3 -62 -8 -67 -11 -15 -9 -76 -19 -165 -28 -28 -3 -64 -10
-80 -16 -16 -6 -29 -11 -29 -10 0 1 -16 -1 -35 -4 -19 -3 -53 -8 -75 -10 -22
-3 -49 -8 -60 -11 -11 -3 -45 -10 -75 -16 -30 -6 -93 -19 -140 -30 -47 -10
-105 -21 -130 -25 -25 -3 -49 -9 -55 -14 -10 -8 -39 -14 -115 -24 -20 -3 -52
-12 -72 -21 -21 -8 -50 -15 -66 -15 -15 0 -52 -9 -82 -19 -30 -10 -71 -22 -90
-25 -44 -7 -59 -10 -90 -23 -14 -6 -45 -13 -69 -17 -24 -3 -49 -10 -56 -16 -6
-5 -29 -12 -50 -16 -77 -12 -99 -17 -106 -26 -3 -4 -29 -12 -59 -18 -29 -5
-58 -14 -64 -19 -12 -9 -51 -20 -100 -28 -16 -3 -39 -11 -51 -19 -11 -7 -34
-15 -51 -17 -16 -2 -43 -11 -61 -20 -18 -9 -42 -17 -55 -17 -13 -1 -41 -9 -63
-20 -22 -11 -49 -20 -60 -20 -11 0 -38 -9 -60 -20 -22 -11 -49 -19 -60 -20
-11 0 -37 -9 -58 -20 -20 -11 -43 -20 -51 -20 -7 0 -33 -9 -57 -19 -24 -11
-55 -21 -69 -23 -14 -2 -36 -11 -50 -21 -13 -9 -33 -17 -43 -17 -10 0 -35 -9
-57 -20 -22 -11 -44 -20 -51 -20 -6 0 -25 -6 -42 -14 -126 -56 -151 -66 -166
-66 -9 0 -28 -8 -41 -17 -14 -10 -32 -19 -40 -20 -14 -2 -50 -16 -155 -63 -22
-9 -56 -24 -75 -33 -46 -19 -147 -64 -185 -82 -16 -7 -71 -33 -120 -58 -50
-24 -103 -47 -118 -51 -15 -3 -27 -11 -27 -16 0 -6 -6 -10 -12 -10 -7 0 -71
-29 -142 -65 -72 -36 -136 -65 -143 -65 -7 0 -13 -4 -13 -9 0 -9 -60 -37 -72
-33 -5 1 -8 -2 -8 -8 0 -5 -21 -18 -47 -30 -26 -11 -50 -24 -53 -28 -3 -4 -34
-22 -70 -40 -36 -18 -72 -37 -80 -42 -26 -16 -270 -154 -298 -169 -15 -8 -38
-22 -51 -32 -13 -10 -27 -16 -32 -13 -5 3 -9 1 -9 -4 0 -10 -95 -72 -110 -72
-5 0 -15 -6 -22 -14 -8 -7 -29 -22 -47 -32 -61 -34 -76 -43 -91 -53 -57 -39
-87 -58 -102 -64 -10 -3 -18 -11 -18 -16 0 -5 -9 -13 -20 -16 -23 -7 -145 -85
-172 -109 -10 -9 -22 -16 -27 -16 -5 0 -16 -6 -23 -12 -14 -14 -64 -49 -168
-119 -36 -24 -71 -50 -78 -56 -7 -7 -19 -13 -25 -13 -7 0 -18 -9 -25 -20 -7
-11 -19 -20 -27 -20 -8 0 -18 -6 -22 -13 -9 -14 -78 -67 -88 -67 -4 0 -12 -6
-20 -12 -7 -7 -35 -30 -61 -50 -131 -100 -217 -164 -231 -173 -9 -5 -24 -17
-33 -25 -9 -8 -31 -26 -49 -40 -18 -14 -40 -33 -49 -42 -9 -10 -20 -18 -24
-18 -5 0 -16 -8 -26 -17 -10 -10 -33 -29 -51 -43 -40 -29 -106 -85 -139 -117
-12 -13 -24 -23 -26 -23 -2 0 -19 -12 -36 -27 -45 -38 -212 -184 -226 -197 -7
-6 -36 -31 -65 -56 -235 -200 -840 -805 -1069 -1070 -30 -35 -64 -74 -75 -86
-11 -12 -47 -52 -80 -90 -33 -37 -69 -78 -80 -90 -11 -12 -31 -37 -45 -54 -14
-17 -34 -42 -45 -54 -57 -65 -235 -287 -309 -385 -23 -30 -54 -69 -70 -87 -16
-18 -34 -42 -40 -53 -18 -32 -200 -273 -218 -290 -10 -8 -18 -22 -18 -29 0 -8
-18 -36 -40 -62 -22 -26 -40 -52 -40 -57 0 -6 -9 -18 -20 -28 -11 -10 -20 -24
-20 -31 0 -7 -6 -17 -14 -21 -7 -4 -21 -21 -30 -38 -23 -42 -40 -69 -47 -75
-13 -11 -185 -276 -192 -297 -5 -13 -12 -23 -17 -23 -4 0 -13 -13 -20 -30 -7
-16 -16 -30 -21 -30 -4 0 -11 -10 -15 -22 -3 -12 -21 -42 -39 -67 -18 -25 -40
-59 -49 -76 -9 -16 -25 -43 -36 -60 -25 -39 -49 -80 -79 -138 -14 -26 -29 -47
-33 -47 -4 0 -8 -8 -8 -18 0 -10 -6 -24 -12 -30 -14 -14 -79 -128 -104 -181
-8 -19 -22 -40 -30 -48 -8 -8 -14 -20 -14 -26 0 -7 -9 -23 -20 -37 -11 -14
-20 -33 -20 -42 0 -10 -4 -18 -9 -18 -5 0 -18 -21 -30 -47 -12 -27 -25 -55
-30 -63 -5 -8 -22 -42 -38 -75 -15 -33 -30 -62 -33 -65 -11 -10 -60 -112 -60
-124 0 -7 -9 -21 -20 -31 -11 -10 -20 -25 -20 -33 0 -8 -8 -31 -19 -51 -10
-20 -37 -76 -61 -126 -23 -49 -50 -106 -60 -125 -9 -19 -21 -50 -25 -68 -3
-18 -11 -30 -16 -26 -5 3 -9 -3 -9 -12 0 -9 -11 -40 -24 -68 -51 -110 -66
-144 -66 -152 0 -5 -8 -25 -19 -44 -10 -19 -22 -50 -25 -67 -4 -18 -11 -33
-16 -33 -5 0 -12 -15 -16 -32 -3 -18 -15 -51 -24 -73 -10 -22 -28 -65 -40 -95
-12 -30 -31 -74 -41 -98 -10 -23 -19 -51 -19 -62 0 -10 -7 -25 -15 -33 -8 -8
-11 -17 -8 -21 4 -3 2 -6 -3 -6 -5 0 -10 -9 -11 -21 -2 -22 -31 -101 -64 -177
-10 -23 -19 -49 -19 -58 0 -8 -7 -29 -16 -46 -9 -17 -18 -44 -21 -60 -2 -16
-13 -48 -23 -71 -11 -23 -20 -49 -20 -57 0 -8 -9 -37 -19 -65 -11 -27 -29 -84
-42 -125 -12 -41 -30 -100 -40 -130 -10 -30 -21 -72 -25 -92 -3 -21 -9 -38
-13 -38 -4 0 -8 -6 -9 -12 -5 -49 -16 -97 -29 -123 -8 -16 -17 -48 -20 -70 -2
-22 -12 -58 -22 -80 -9 -22 -18 -58 -20 -80 -2 -22 -8 -49 -14 -60 -6 -11 -10
-24 -9 -29 2 -4 -1 -13 -6 -20 -4 -6 -10 -29 -11 -51 -2 -22 -10 -56 -18 -75
-8 -19 -17 -53 -20 -75 -3 -22 -13 -69 -24 -104 -10 -35 -19 -76 -19 -92 0
-15 -8 -50 -18 -76 -10 -26 -20 -68 -21 -92 -1 -24 -9 -62 -17 -85 -8 -22 -17
-66 -20 -96 -3 -30 -12 -77 -20 -105 -9 -27 -18 -63 -19 -80 -12 -112 -16
-139 -24 -154 -5 -9 -12 -46 -16 -82 -10 -104 -15 -141 -20 -148 -7 -13 -16
-64 -20 -121 -7 -94 -14 -143 -30 -220 -3 -14 -8 -54 -10 -90 -13 -168 -20
-229 -31 -280 -4 -14 -8 -65 -10 -115 -5 -142 -14 -268 -19 -297 -12 -66 -15
-106 -21 -333 -8 -273 -8 -890 0 -1010 3 -44 8 -162 11 -263 3 -100 11 -220
16 -265 11 -84 14 -119 24 -292 7 -115 13 -174 20 -185 2 -4 7 -63 10 -131 6
-125 12 -186 19 -198 4 -6 7 -37 22 -183 2 -21 8 -55 13 -75 12 -44 22 -119
26 -183 1 -25 10 -73 19 -108 10 -34 19 -86 21 -115 2 -28 4 -52 5 -52 2 0 9
-36 12 -70 1 -16 8 -34 15 -40 6 -5 14 -41 16 -78 3 -37 10 -74 16 -81 12 -14
16 -37 26 -138 3 -28 10 -57 16 -64 6 -7 13 -30 15 -51 2 -21 6 -54 8 -74 2
-20 9 -46 16 -58 13 -25 16 -40 25 -115 3 -27 11 -56 17 -63 6 -7 12 -23 14
-36 11 -91 16 -112 25 -118 6 -4 13 -21 15 -38 2 -17 6 -43 7 -58 2 -16 11
-43 21 -61 9 -18 16 -38 14 -45 -3 -17 13 -80 23 -93 6 -7 12 -25 14 -40 8
-53 11 -62 23 -76 6 -8 13 -28 15 -44 2 -16 9 -39 15 -50 6 -12 14 -41 18 -65
3 -24 14 -64 24 -89 10 -25 20 -58 21 -75 2 -16 9 -37 17 -46 7 -9 16 -34 19
-55 3 -22 12 -48 20 -60 7 -12 20 -43 27 -70 14 -48 32 -98 57 -159 7 -16 14
-38 15 -47 8 -39 9 -43 14 -48 13 -13 30 -52 30 -68 0 -10 9 -35 20 -57 11
-22 20 -46 20 -55 0 -8 9 -28 20 -45 11 -16 20 -39 20 -50 0 -11 9 -33 20 -50
11 -16 20 -36 20 -44 0 -8 11 -37 24 -65 52 -111 65 -142 72 -171 4 -16 11
-33 16 -36 5 -3 10 -15 13 -27 2 -11 8 -29 14 -40 6 -11 7 -22 4 -26 -3 -3 -1
-6 5 -6 7 0 17 -20 23 -45 6 -25 15 -45 19 -45 5 0 11 -15 15 -33 4 -17 14
-43 23 -57 9 -14 17 -29 18 -35 6 -31 11 -42 27 -57 10 -9 18 -19 17 -22 -4
-15 12 -66 20 -66 5 0 14 -18 20 -39 5 -21 17 -41 25 -44 8 -4 12 -15 10 -25
-2 -10 8 -32 21 -47 13 -15 24 -36 24 -46 0 -10 7 -25 16 -33 14 -14 20 -30
23 -58 1 -4 11 -16 23 -28 12 -11 18 -20 14 -20 -4 0 2 -10 14 -22 17 -18 26
-58 21 -90 0 -5 3 -8 7 -8 5 0 27 -34 48 -75 49 -95 67 -127 87 -159 10 -14
17 -32 17 -39 0 -8 9 -22 20 -32 11 -10 20 -26 20 -36 0 -10 5 -21 10 -24 6
-3 19 -23 29 -43 41 -82 52 -100 66 -112 8 -7 15 -20 15 -29 0 -10 8 -26 18
-37 10 -11 22 -32 26 -47 3 -15 11 -27 17 -27 5 0 15 -14 20 -30 6 -17 15 -30
19 -30 5 0 14 -15 20 -34 6 -19 17 -37 25 -40 8 -3 15 -13 15 -21 0 -9 12 -32
26 -51 15 -19 23 -34 18 -34 -4 0 2 -9 14 -20 12 -12 22 -27 22 -34 0 -7 9
-21 19 -30 11 -10 24 -30 31 -45 6 -16 22 -34 36 -41 13 -8 24 -19 24 -27 0
-18 20 -52 48 -81 12 -13 20 -27 17 -32 -3 -5 3 -14 14 -19 11 -6 22 -24 26
-41 4 -16 12 -28 18 -27 7 1 11 -4 10 -10 -2 -7 2 -13 7 -13 6 0 10 -7 10 -15
0 -8 8 -24 17 -35 10 -11 18 -24 18 -28 0 -4 10 -17 23 -29 12 -13 22 -30 22
-38 0 -8 7 -15 15 -15 8 0 15 -8 15 -18 0 -19 18 -42 32 -42 5 0 7 13 6 29 -1
16 -5 28 -9 25 -8 -4 -24 15 -24 28 0 4 -9 18 -20 30 -29 33 -65 88 -59 88 5
0 -26 41 -71 93 -8 9 -12 17 -9 17 4 0 1 6 -5 13 -6 8 -8 16 -5 20 3 3 -3 10
-14 16 -11 6 -23 24 -27 41 -4 16 -13 30 -21 30 -18 0 -19 55 -1 70 6 6 25 22
40 35 16 14 33 23 38 20 5 -4 9 -2 9 3 0 9 124 112 135 112 4 0 23 12 43 27
20 16 41 31 47 35 5 4 24 19 41 33 18 14 35 25 39 25 4 0 29 18 55 40 26 22
55 40 64 40 9 0 16 4 16 8 0 8 85 72 95 72 3 0 11 4 18 10 48 41 104 80 113
80 7 0 14 7 18 15 3 8 12 15 20 15 8 0 21 6 28 13 15 15 147 107 153 107 2 0
21 11 42 25 21 14 45 30 53 35 8 5 31 20 50 33 19 13 42 26 50 30 8 4 35 21
60 37 25 16 60 36 78 46 17 9 32 20 32 25 0 5 8 9 18 9 11 0 27 9 37 20 10 11
25 20 33 20 8 0 27 11 44 25 16 14 36 25 44 25 8 0 14 4 14 8 0 5 18 16 40 26
22 10 40 22 40 27 0 5 7 9 15 9 8 0 29 10 47 22 19 13 56 34 83 48 28 14 52
28 55 31 3 4 22 14 42 22 21 9 38 21 38 26 0 6 11 11 23 11 13 0 34 9 47 20
13 11 29 20 35 20 7 0 24 9 38 20 14 11 33 20 41 20 9 0 26 9 38 20 12 11 29
20 38 20 9 0 27 9 40 20 13 11 31 20 40 20 10 0 29 9 43 20 14 11 31 20 39 20
7 0 24 9 38 20 14 11 32 20 41 20 9 0 28 9 42 20 14 11 30 20 37 20 6 0 28 9
48 20 86 45 230 110 245 110 9 0 17 4 17 9 0 5 10 13 23 17 26 8 121 50 158
70 15 7 36 15 47 17 11 2 26 8 34 14 7 6 31 16 53 23 22 7 49 19 60 25 11 7
33 16 50 20 16 3 36 12 43 18 8 6 22 12 33 14 36 6 44 8 57 20 7 7 32 17 55
23 23 6 53 17 67 24 14 8 41 17 60 21 19 4 42 13 50 20 8 8 27 16 41 18 15 3
40 12 57 21 17 9 39 16 49 16 10 0 35 9 56 20 20 11 46 20 57 20 11 0 37 9 59
21 21 11 50 21 63 23 12 1 40 10 60 19 21 9 44 17 53 17 9 0 30 7 47 16 17 9
45 18 62 21 17 3 50 13 73 24 23 10 51 19 63 19 11 0 38 9 59 20 21 10 54 21
72 23 19 2 48 11 66 20 18 9 45 17 60 17 16 0 46 9 68 20 22 11 49 20 60 20
11 0 45 9 75 19 30 11 74 22 97 26 23 3 55 12 70 20 15 8 40 15 55 15 15 0 50
9 78 20 28 11 62 20 75 20 14 0 51 9 82 19 32 11 77 22 100 25 23 3 58 12 77
20 20 8 61 17 92 20 31 3 62 10 68 15 7 6 46 15 87 21 41 6 88 17 104 24 17 8
58 16 92 20 34 3 71 10 81 15 11 6 48 15 83 21 79 12 94 15 144 28 22 6 60 13
85 16 67 9 74 11 87 19 6 4 31 10 55 13 90 11 106 14 134 25 30 11 44 14 124
23 25 3 65 12 90 20 25 8 65 17 90 20 50 5 86 12 98 20 9 6 40 11 116 21 27 3
57 10 66 15 9 5 48 14 86 20 38 6 89 17 114 25 25 8 66 16 91 18 25 3 54 9 65
15 10 5 24 11 29 11 6 1 19 4 30 7 11 2 38 6 60 9 53 6 67 9 83 18 13 9 27 12
102 21 24 3 63 12 85 20 22 8 63 18 90 24 60 12 118 27 205 53 36 10 79 21 95
23 17 2 32 5 35 6 3 1 8 2 13 1 4 0 7 3 7 8 0 8 89 28 98 22 1 -1 16 6 33 15
29 14 59 23 99 28 8 1 32 10 54 19 21 9 46 17 55 17 9 0 34 9 56 19 22 10 57
21 77 25 21 4 50 13 65 21 15 8 36 15 46 15 10 0 35 9 57 20 22 11 47 20 57
20 10 0 35 9 56 20 20 11 45 20 55 20 9 0 34 9 55 20 20 11 43 20 50 20 7 0
28 9 48 19 20 11 52 23 72 26 20 4 41 13 48 21 6 8 20 14 30 14 10 0 29 10 43
23 13 12 35 30 49 40 23 17 52 84 50 118 0 21 -42 109 -51 109 -4 0 -19 11
-34 25 -14 13 -39 27 -55 30 -91 19 -90 19 -133 11 -19 -4 -66 -11 -105 -16
-38 -5 -88 -15 -110 -23 -22 -8 -63 -17 -91 -21 -29 -3 -65 -13 -80 -20 -16
-8 -56 -16 -89 -18 -33 -1 -63 -7 -67 -13 -4 -5 -11 -10 -15 -11 -4 0 -24 -4
-43 -7 -19 -4 -57 -9 -84 -12 -27 -3 -55 -10 -61 -15 -7 -6 -36 -12 -66 -15
-94 -10 -153 -20 -168 -30 -12 -7 -81 -17 -135 -19 -23 -1 -45 -4 -51 -8 -21
-12 -157 -33 -265 -40 -8 -1 -17 -5 -20 -9 -6 -8 -70 -16 -183 -24 -37 -2 -71
-7 -76 -9 -19 -12 -82 -21 -215 -30 -44 -4 -95 -10 -115 -16 -35 -9 -85 -15
-219 -25 -34 -2 -80 -9 -101 -15 -37 -10 -62 -12 -236 -25 -44 -3 -97 -10
-117 -16 -43 -11 -104 -18 -218 -24 -44 -2 -84 -6 -90 -10 -21 -13 -103 -22
-260 -29 -41 -2 -82 -6 -90 -9 -39 -14 -109 -23 -256 -31 -50 -3 -113 -10
-140 -16 -51 -12 -88 -16 -209 -25 -38 -2 -85 -9 -104 -15 -18 -5 -66 -12
-105 -15 -130 -10 -164 -15 -192 -25 -26 -10 -46 -13 -179 -25 -91 -8 -100 -9
-105 -17 -3 -3 -37 -9 -75 -13 -100 -9 -123 -12 -190 -29 -33 -8 -89 -17 -125
-20 -36 -2 -87 -11 -115 -20 -27 -8 -75 -17 -106 -20 -30 -3 -68 -10 -85 -16
-16 -7 -51 -14 -79 -17 -27 -2 -65 -9 -83 -15 -18 -5 -41 -11 -50 -13 -9 -2
-17 -4 -17 -5 0 -2 -22 -6 -80 -15 -22 -3 -58 -12 -81 -20 -23 -8 -59 -16 -81
-18 -21 -3 -61 -12 -89 -20 -57 -18 -193 -53 -244 -63 -19 -4 -46 -11 -60 -17
-14 -6 -38 -12 -55 -14 -16 -3 -48 -11 -70 -19 -42 -16 -62 -21 -108 -29 -15
-3 -36 -9 -45 -14 -9 -5 -57 -21 -107 -36 -49 -15 -112 -35 -140 -46 -27 -10
-66 -21 -85 -24 -19 -3 -37 -10 -40 -14 -5 -9 -80 -32 -80 -25 0 2 -18 -5 -40
-16 -21 -11 -45 -20 -52 -20 -7 -1 -31 -9 -53 -20 -22 -11 -46 -19 -53 -20 -8
0 -28 -7 -45 -15 -30 -13 -50 -21 -147 -55 -19 -7 -52 -21 -73 -31 -22 -11
-47 -19 -57 -19 -10 0 -23 -6 -29 -14 -7 -8 -27 -18 -44 -22 -18 -3 -45 -14
-62 -22 -16 -9 -32 -17 -35 -17 -43 -11 -67 -21 -78 -32 -7 -7 -20 -13 -28
-13 -8 0 -32 -8 -52 -19 -34 -17 -90 -43 -152 -70 -14 -6 -32 -15 -40 -20 -8
-5 -42 -21 -75 -35 -33 -15 -67 -31 -75 -36 -8 -6 -26 -15 -40 -21 -56 -23
-195 -95 -208 -106 -7 -7 -22 -13 -32 -13 -11 0 -27 -9 -37 -19 -10 -11 -30
-22 -45 -26 -16 -4 -28 -10 -28 -15 0 -4 -17 -14 -37 -23 -21 -9 -45 -21 -53
-26 -38 -25 -165 -94 -165 -90 0 2 -11 -6 -25 -18 -13 -13 -29 -23 -35 -23 -6
0 -26 -11 -45 -25 -18 -13 -37 -22 -41 -19 -5 3 -9 1 -9 -5 0 -6 -17 -20 -38
-31 -20 -11 -44 -25 -52 -30 -30 -20 -236 -144 -277 -168 -24 -13 -43 -28 -43
-33 0 -5 -7 -9 -16 -9 -9 0 -28 -9 -42 -21 -23 -18 -88 -60 -141 -94 -66 -41
-98 -62 -109 -73 -7 -6 -18 -12 -24 -12 -10 0 -55 -33 -89 -65 -9 -8 -19 -15
-23 -15 -7 0 -55 -32 -99 -68 -16 -12 -36 -22 -45 -22 -20 0 -58 52 -67 93 -4
15 -11 27 -15 27 -5 0 -14 17 -21 38 -6 20 -17 40 -22 44 -6 3 -12 17 -14 29
-2 13 -12 32 -23 44 -19 20 -20 23 -20 49 0 8 -7 22 -16 30 -9 9 -17 22 -18
29 -5 30 -18 57 -27 57 -6 0 -8 4 -5 9 4 5 2 11 -3 13 -6 1 -11 16 -13 31 -3
16 -10 32 -17 36 -7 5 -13 14 -15 22 -5 29 -19 64 -28 70 -7 5 -12 19 -22 66
-1 7 -10 21 -21 33 -10 11 -16 23 -12 26 7 7 -13 67 -26 76 -6 3 -12 22 -13
42 -3 30 1 38 26 53 17 9 30 21 30 25 0 4 7 8 16 8 8 0 31 12 50 26 19 15 37
24 40 21 3 -3 13 1 22 9 47 41 81 64 95 64 8 0 17 4 19 8 4 11 92 69 117 77
12 3 21 10 21 15 0 5 10 12 23 16 12 4 36 17 53 30 17 13 33 22 36 19 3 -3 11
1 18 10 7 8 16 15 20 15 4 0 41 20 82 45 42 25 80 45 85 45 5 0 20 9 33 20 13
11 29 20 35 20 7 0 24 9 39 21 14 11 35 21 46 22 11 1 20 5 20 9 0 5 20 17 44
28 24 10 47 23 50 29 4 6 16 11 27 11 10 0 28 9 39 20 11 11 27 20 36 20 9 0
28 9 43 19 14 10 35 21 46 23 11 1 29 11 39 21 11 9 26 17 33 17 8 0 31 8 51
19 35 18 56 27 177 82 28 12 58 26 68 31 9 4 25 12 35 16 9 5 35 18 57 29 22
11 54 24 72 27 17 4 37 14 44 22 6 8 21 14 33 14 12 0 31 6 42 14 11 8 39 19
63 26 24 6 50 18 58 26 8 8 24 14 36 14 12 0 39 9 60 20 21 12 52 22 68 23 16
1 29 5 29 8 0 9 48 28 84 35 16 3 38 11 50 19 11 8 31 15 43 15 13 0 40 9 60
20 21 11 48 20 60 20 12 0 37 9 55 20 18 11 44 20 58 20 14 0 43 9 65 19 22
10 60 21 85 25 24 4 49 11 56 17 7 5 25 12 41 15 61 10 85 16 111 30 15 8 39
14 54 14 15 0 51 9 80 20 29 11 62 20 73 20 30 1 176 53 210 75 77 51 106 111
90 187 -8 36 -80 118 -105 118 -8 0 -27 7 -43 15 -15 8 -53 19 -85 25 -31 6
-61 12 -67 13 -5 2 -15 6 -22 10 -6 4 -33 9 -60 12 -67 7 -131 16 -156 21 -12
3 -35 8 -52 12 -16 4 -212 7 -435 7 -307 0 -417 -3 -455 -13 -27 -8 -88 -15
-135 -17 -118 -5 -220 -14 -250 -21 -70 -16 -116 -24 -168 -28 -31 -2 -84 -11
-117 -20 -33 -9 -85 -17 -115 -20 -30 -2 -76 -11 -102 -19 -26 -9 -64 -17 -85
-19 -21 -1 -60 -10 -88 -19 -27 -9 -68 -19 -90 -22 -22 -2 -53 -10 -70 -17
-16 -6 -55 -16 -85 -22 -30 -5 -59 -13 -65 -18 -11 -8 -125 -35 -138 -32 -4 1
-7 -2 -7 -7 0 -5 -19 -12 -42 -16 -24 -4 -57 -14 -75 -22 -17 -8 -55 -20 -85
-28 -53 -13 -76 -21 -173 -57 -27 -10 -59 -20 -70 -22 -11 -2 -33 -11 -50 -20
-16 -9 -38 -16 -48 -16 -9 0 -34 -9 -54 -20 -21 -11 -44 -20 -51 -20 -14 0
-40 -11 -132 -54 -47 -21 -50 -23 -74 -25 -8 0 -21 -7 -28 -14 -19 -19 -46
-28 -53 -16 -4 5 -8 24 -10 41 -3 17 -12 42 -21 56 -11 17 -12 22 -3 16 12 -6
12 -5 1 8 -8 9 -12 25 -11 35 2 10 -5 35 -15 55 -19 39 -19 40 -31 105 -4 24
-11 40 -16 37 -5 -2 -11 5 -13 18 -7 32 -17 111 -15 122 0 5 -4 12 -10 16 -6
3 -14 22 -16 41 -3 19 -9 49 -14 67 -5 17 -7 32 -4 32 3 0 -1 8 -9 18 -8 9
-18 45 -22 80 -3 35 -11 73 -18 85 -6 12 -12 31 -14 42 -10 78 -14 96 -27 121
-8 16 -18 64 -21 108 -4 43 -12 88 -18 100 -7 11 -13 37 -13 56 -1 20 -7 52
-14 73 -7 20 -10 40 -7 45 3 5 -4 15 -15 22 -18 14 -27 51 -11 49 4 -1 9 0 12
1 12 4 47 12 70 14 14 1 39 6 55 10 81 18 379 31 710 30 351 -1 595 -9 705
-25 41 -6 86 -13 100 -14 14 -2 61 -7 105 -10 94 -7 149 -13 190 -22 41 -9 45
-10 48 -12 1 -2 27 -4 57 -6 102 -8 163 -15 174 -22 16 -10 31 -13 126 -19 47
-3 109 -12 138 -20 29 -8 86 -17 125 -20 40 -3 99 -12 132 -21 34 -8 120 -17
199 -19 153 -4 173 2 238 69 27 29 31 39 31 92 0 58 -5 69 -51 112 -43 41
-154 103 -184 103 -7 0 -26 8 -43 18 -16 10 -46 19 -65 21 -19 2 -48 10 -65
19 -16 8 -45 17 -63 19 -18 2 -55 12 -83 23 -27 11 -60 20 -72 20 -12 0 -33 7
-45 16 -12 8 -22 12 -22 8 0 -3 -6 -2 -12 3 -7 5 -29 10 -48 12 -19 2 -48 10
-63 18 -16 8 -49 17 -75 20 -26 3 -58 11 -72 18 -23 12 -39 16 -120 29 -14 2
-38 9 -54 15 -15 6 -60 16 -98 21 -39 6 -75 13 -82 17 -13 9 -29 12 -81 18
-82 10 -109 16 -123 28 -8 6 -17 11 -19 10 -1 -2 -4 -3 -5 -2 -2 0 -23 2 -48
4 -80 7 -120 14 -139 25 -11 5 -46 12 -78 15 -79 7 -136 16 -148 23 -11 7 -23
10 -80 16 -103 12 -160 18 -160 15 0 -1 -10 3 -22 9 -12 7 -52 14 -90 17 -163
13 -186 16 -196 22 -5 3 -22 8 -36 10 -24 3 -50 6 -201 18 -30 2 -82 9 -115
15 -59 12 -124 16 -334 20 -146 3 -140 1 -140 74 0 102 -14 277 -24 293 -9 15
-16 93 -23 248 -3 83 -10 166 -14 185 -8 32 -13 117 -25 398 -2 56 -7 107 -10
112 -8 12 35 70 51 70 7 0 19 7 28 15 8 9 31 22 50 30 19 8 37 19 41 25 3 5
13 10 22 10 8 0 27 9 43 20 15 11 36 21 46 23 11 1 30 10 44 19 14 9 36 19 50
23 13 4 30 14 38 21 7 8 21 14 30 14 9 0 31 9 47 20 17 11 37 20 45 20 9 0 33
9 55 20 21 11 48 21 59 23 12 2 37 10 56 19 53 23 130 48 179 59 24 5 49 13
55 18 6 5 38 14 71 21 33 7 65 16 71 21 6 5 38 14 70 20 32 6 70 17 84 24 14
7 43 15 65 18 22 3 54 13 70 21 17 8 44 17 61 19 17 3 42 12 55 20 13 8 42 18
63 22 21 3 45 13 53 21 8 8 25 14 37 14 13 0 33 9 46 20 13 11 28 20 35 20 6
0 37 18 69 40 31 22 59 40 61 40 10 0 95 65 95 72 0 4 7 8 15 8 8 0 20 9 27
20 7 11 18 20 24 20 6 0 19 9 29 20 10 11 22 20 26 20 5 0 27 18 51 40 24 22
46 40 51 40 4 0 15 7 25 15 9 9 49 41 87 71 39 31 72 60 73 65 2 5 10 9 17 9
8 0 20 6 27 13 25 23 86 66 98 69 7 2 22 12 34 23 12 11 32 27 45 35 13 8 37
25 54 38 17 12 37 22 44 22 7 0 13 5 13 11 0 5 15 16 33 24 19 8 39 21 47 29
7 9 18 16 25 16 6 0 20 9 30 20 10 11 25 20 33 20 9 0 25 9 36 19 12 11 30 21
41 23 11 1 29 11 39 21 11 9 26 17 33 17 8 0 23 9 35 20 12 11 29 20 39 20 9
0 28 9 42 20 14 11 31 20 39 20 7 0 34 11 61 25 26 14 47 23 47 19 0 -3 15 3
33 14 17 11 49 23 70 26 20 4 37 11 37 16 0 8 11 11 80 24 14 3 44 12 68 21
23 8 64 17 90 19 54 5 104 14 148 25 37 10 306 7 322 -3 15 -9 41 -14 126 -25
38 -5 72 -14 75 -19 3 -5 32 -15 64 -22 31 -6 57 -15 57 -20 0 -4 17 -11 37
-15 21 -4 45 -12 53 -20 8 -7 32 -18 52 -24 20 -7 42 -19 48 -27 7 -7 20 -14
30 -14 10 0 23 -7 30 -15 7 -8 38 -29 69 -47 31 -17 58 -34 61 -38 7 -8 62
-52 101 -80 41 -30 248 -237 269 -269 8 -13 25 -35 38 -49 12 -15 35 -45 50
-67 15 -22 33 -46 40 -53 6 -7 12 -17 12 -22 0 -5 6 -15 13 -22 8 -7 20 -25
28 -39 75 -138 77 -140 171 -146 40 -2 89 -8 108 -13 19 -5 62 -12 94 -16 66
-7 69 -8 109 -19 15 -4 27 -10 27 -14 0 -3 16 -7 35 -8 19 -2 51 -12 73 -23
21 -11 50 -21 65 -22 16 -1 35 -10 44 -20 9 -10 25 -18 35 -18 11 0 31 -9 45
-20 14 -11 32 -20 40 -20 7 0 36 -18 64 -40 28 -22 56 -40 62 -40 5 0 17 -7
26 -15 9 -8 41 -36 71 -62 82 -72 227 -227 255 -272 39 -64 58 -91 66 -91 5 0
9 -9 9 -19 0 -11 4 -22 9 -26 6 -3 28 -39 51 -80 23 -41 45 -77 51 -80 5 -4 9
-12 9 -20 0 -17 93 -155 133 -198 15 -16 27 -32 27 -36 1 -23 278 -301 300
-301 5 0 13 -6 17 -13 4 -7 37 -37 73 -65 36 -29 70 -57 77 -62 7 -6 24 -15
37 -22 14 -6 23 -14 21 -18 -2 -4 11 -13 30 -20 19 -8 35 -17 35 -21 0 -3 14
-12 30 -19 17 -7 30 -16 30 -21 0 -4 10 -11 22 -15 13 -4 35 -15 50 -25 16
-11 41 -28 58 -39 16 -11 36 -20 45 -20 9 0 18 -7 21 -15 3 -8 24 -20 46 -25
21 -6 42 -18 45 -26 3 -7 15 -14 27 -14 12 0 31 -8 42 -17 10 -10 30 -20 44
-22 13 -1 35 -12 49 -22 13 -10 30 -19 37 -19 8 0 31 -9 51 -20 21 -11 45 -20
53 -20 9 0 25 -6 36 -14 11 -8 40 -19 64 -26 25 -7 52 -17 60 -24 8 -6 29 -13
45 -15 17 -1 47 -11 68 -22 21 -10 47 -19 58 -19 11 0 34 -8 52 -17 18 -9 47
-18 66 -20 18 -1 47 -10 65 -19 17 -8 51 -18 76 -21 25 -3 58 -11 75 -19 16
-8 57 -19 90 -23 33 -5 73 -14 89 -20 16 -7 54 -14 85 -17 31 -3 77 -12 102
-19 26 -8 69 -17 95 -20 27 -3 69 -8 94 -11 25 -3 47 -6 50 -6 3 0 13 -4 22
-9 9 -5 50 -11 90 -14 165 -11 263 -20 263 -24 0 -3 79 -9 220 -17 257 -13
1180 -5 1290 12 79 12 185 21 350 29 86 4 101 6 170 21 33 7 50 9 173 19 46 3
94 10 108 15 25 10 49 13 184 25 36 3 94 12 130 20 36 8 97 16 135 19 69 5
122 13 135 21 8 5 72 13 163 20 37 3 77 9 90 14 27 10 83 18 192 27 44 3 83 8
87 11 18 10 94 20 219 28 47 3 97 8 110 10 65 14 190 25 314 30 55 2 156 7
225 12 126 8 587 8 780 1 58 -2 141 1 185 8 44 7 103 14 131 17 28 3 65 12 82
21 17 9 42 16 55 16 13 0 36 9 50 20 14 11 32 20 40 20 8 0 26 9 40 20 14 11
29 20 35 20 5 0 19 9 32 20 13 11 29 20 35 20 7 0 15 7 19 15 3 8 10 15 17 15
6 0 35 20 63 45 29 25 56 45 60 45 11 0 296 287 296 299 0 5 6 14 13 18 11 7
47 49 135 159 9 12 26 34 37 49 11 16 25 33 30 39 25 27 65 86 65 95 0 5 6 14
14 18 7 4 22 23 32 42 11 18 24 41 29 50 20 32 88 136 107 163 10 15 18 34 18
43 0 9 7 18 15 21 8 4 15 12 15 19 0 7 11 29 25 49 14 20 25 43 25 51 0 7 6
20 13 27 6 7 30 50 52 96 22 45 42 82 46 82 3 0 6 7 6 15 0 15 26 81 64 160
10 22 19 47 19 56 0 8 9 33 19 55 11 23 22 52 24 65 2 13 11 41 21 61 9 21 16
43 16 50 0 7 9 40 19 73 11 33 25 80 31 105 15 63 18 75 20 75 1 0 4 23 6 50
3 28 12 77 20 110 21 79 26 167 26 423 0 234 -6 316 -27 378 -8 23 -15 62 -16
85 -2 24 -9 59 -16 77 -8 19 -18 52 -23 75 -13 64 -58 188 -101 283 -11 23
-19 48 -19 56 0 8 -9 25 -20 38 -11 13 -20 31 -20 41 0 10 -5 21 -11 25 -6 3
-19 25 -30 48 -30 63 -51 100 -66 114 -7 7 -13 17 -13 21 0 4 -11 21 -25 37
-13 15 -22 30 -20 33 3 2 -4 10 -15 18 -11 8 -20 20 -20 28 0 7 -3 15 -7 17
-5 2 -24 23 -42 48 -19 25 -44 56 -55 69 -36 43 -221 224 -270 266 -26 22 -54
46 -62 54 -38 34 -209 154 -269 187 -16 9 -32 20 -35 23 -3 3 -23 15 -45 26
-57 30 -147 77 -165 87 -8 4 -22 11 -30 14 -8 4 -38 17 -65 30 -28 12 -63 26
-78 29 -15 4 -27 10 -27 14 0 5 -24 13 -54 20 -30 7 -56 16 -58 21 -2 5 -21
12 -43 15 -22 4 -56 14 -75 24 -19 9 -53 18 -74 20 -22 2 -51 8 -65 13 -33 14
-48 18 -91 24 -61 9 -145 26 -154 32 -5 3 -30 6 -55 7 -91 4 -217 16 -272 26
-56 9 -316 14 -354 6 -34 -8 -188 -23 -329 -32 -44 -3 -83 -8 -88 -11 -14 -9
-89 -22 -163 -28 -22 -2 -53 -9 -70 -16 -16 -6 -46 -14 -65 -16 -79 -9 -104
-15 -117 -25 -7 -6 -13 -8 -13 -3 0 4 -5 3 -12 -4 -7 -7 -30 -12 -53 -12 -22
0 -53 -7 -70 -16 -16 -9 -47 -18 -68 -20 -21 -3 -60 -13 -86 -24 -63 -25 -224
-34 -260 -15 -72 37 -103 147 -62 225 11 22 21 49 21 59 0 10 7 24 15 31 8 7
15 18 15 25 0 7 12 28 28 47 15 20 34 46 42 58 16 25 61 82 70 90 4 3 33 37
65 75 76 90 104 121 196 214 68 68 158 151 165 151 1 0 29 25 63 57 34 31 101
87 149 125 48 37 94 75 103 83 9 8 20 15 25 15 5 0 16 9 24 20 8 11 18 20 23
20 9 0 61 35 93 63 12 10 28 19 36 21 8 1 26 10 39 21 14 11 43 29 64 40 21
11 47 28 57 38 10 9 24 17 32 17 7 0 24 9 38 19 13 11 37 23 51 26 15 4 27 11
27 15 0 4 14 13 30 19 17 5 30 8 30 5 0 -2 9 5 20 16 11 11 30 20 43 20 12 0
33 9 47 20 14 11 33 20 43 20 10 0 35 9 57 20 22 11 47 20 57 20 10 0 32 7 48
16 17 8 55 20 85 26 30 5 63 16 74 24 11 8 30 14 42 14 11 0 29 9 39 20 10 11
26 20 35 20 9 0 25 9 35 20 10 11 22 20 26 20 21 0 229 231 229 254 0 3 8 15
18 25 9 11 25 30 34 43 9 13 29 37 43 54 14 18 25 35 25 39 0 3 19 30 43 59
23 29 49 64 57 76 13 20 64 80 110 129 8 9 40 45 70 81 65 76 210 222 266 266
21 18 51 44 65 58 27 27 80 70 119 96 12 8 37 26 55 40 68 52 147 101 227 141
20 11 39 23 42 28 4 5 19 12 35 16 16 3 35 13 42 21 6 8 22 14 34 14 12 0 33
9 47 19 14 11 36 22 49 24 13 2 40 11 60 20 20 9 49 18 65 21 16 2 30 5 32 6
1 2 5 3 10 4 4 1 13 5 20 9 13 9 34 14 92 21 19 2 58 12 85 22 76 26 513 26
625 -1 50 -12 55 -13 55 -15 0 -1 25 -4 55 -7 30 -2 69 -11 85 -20 17 -8 44
-17 60 -20 17 -3 35 -6 40 -7 6 -1 19 -7 30 -13 11 -6 40 -16 65 -23 25 -6 50
-18 57 -26 6 -9 14 -15 17 -15 28 3 46 -2 66 -19 13 -11 31 -20 40 -20 10 0
29 -9 43 -20 14 -11 30 -20 36 -20 7 0 24 -8 39 -19 38 -26 86 -55 92 -55 3 0
34 -22 70 -48 36 -27 76 -56 89 -66 14 -9 39 -28 55 -42 17 -14 36 -28 41 -32
49 -36 212 -191 216 -206 1 -6 86 -103 151 -174 33 -35 82 -43 142 -22 21 8
68 19 104 25 37 5 72 15 79 21 7 6 13 7 13 3 0 -4 7 -2 15 5 8 7 15 10 15 7 0
-5 89 12 165 32 22 5 72 13 110 16 91 8 119 12 142 18 67 20 517 25 613 7 30
-6 87 -15 125 -21 39 -6 99 -19 135 -29 36 -11 81 -22 100 -26 19 -3 40 -11
47 -16 7 -5 27 -12 45 -15 18 -2 44 -11 56 -20 13 -8 36 -17 50 -19 15 -3 38
-13 52 -23 14 -10 37 -21 53 -25 15 -3 27 -10 27 -15 0 -5 16 -15 35 -21 19
-6 35 -15 35 -20 0 -4 14 -13 30 -19 17 -5 30 -15 30 -20 0 -6 6 -11 14 -11 8
0 28 -11 44 -25 17 -14 32 -25 36 -25 3 0 40 -33 82 -72 110 -104 134 -128
179 -182 22 -26 46 -54 54 -63 18 -19 49 -71 57 -95 4 -10 10 -18 14 -18 4 0
17 -19 29 -42 12 -24 25 -50 30 -58 38 -64 108 -249 103 -272 -1 -5 2 -8 7 -8
5 0 12 -19 16 -42 4 -24 9 -56 11 -73 3 -16 11 -55 19 -85 21 -79 18 -384 -5
-511 -16 -94 -16 -97 4 -157 12 -34 30 -72 41 -86 25 -31 91 -76 110 -76 7 0
26 -5 42 -12 36 -14 47 -17 113 -23 147 -14 176 -18 185 -25 6 -5 35 -12 65
-15 87 -10 110 -15 141 -31 16 -8 29 -13 29 -11 0 9 94 -14 108 -25 8 -7 22
-13 31 -14 29 -1 71 -16 71 -25 0 -4 17 -11 38 -15 20 -4 48 -15 61 -25 13
-11 32 -19 42 -19 11 0 19 -4 19 -9 0 -5 15 -14 33 -22 17 -7 46 -23 63 -36
17 -13 36 -23 42 -23 7 0 12 -4 12 -10 0 -5 6 -10 13 -10 8 0 27 -11 43 -25
16 -14 47 -38 68 -53 55 -37 105 -83 205 -183 89 -89 161 -169 161 -177 0 -4
39 -54 139 -178 4 -5 14 -21 21 -34 7 -14 19 -31 27 -38 7 -7 13 -20 13 -28 0
-8 4 -14 10 -14 5 0 19 -17 30 -37 11 -21 29 -51 40 -68 11 -16 29 -47 40 -67
11 -21 24 -38 29 -38 5 0 12 -13 16 -30 4 -16 10 -30 15 -30 9 0 26 -27 54
-86 8 -17 22 -36 30 -44 9 -7 16 -20 16 -30 0 -10 6 -23 14 -29 7 -6 29 -41
47 -77 19 -36 40 -70 46 -76 7 -6 13 -19 13 -29 0 -10 6 -22 13 -26 7 -4 30
-38 51 -75 20 -38 41 -68 46 -68 6 0 10 -9 10 -20 0 -10 8 -27 19 -37 10 -10
22 -28 25 -40 4 -13 11 -23 15 -23 5 0 14 -13 21 -30 7 -16 16 -30 20 -30 4 0
13 -13 20 -30 7 -16 16 -30 21 -30 4 0 11 -9 14 -20 3 -11 12 -26 18 -32 7 -7
27 -35 45 -63 31 -48 56 -81 95 -127 9 -12 17 -25 17 -29 0 -4 6 -14 13 -21
40 -43 97 -118 97 -127 0 -6 4 -11 8 -11 4 0 15 -13 25 -29 18 -31 68 -91 105
-127 12 -11 22 -26 22 -32 0 -6 6 -15 13 -19 7 -4 23 -21 36 -38 65 -86 477
-506 656 -670 48 -44 108 -99 134 -122 25 -24 49 -43 52 -43 6 0 72 -55 116
-97 13 -13 26 -23 30 -23 5 0 42 -28 83 -63 34 -29 129 -103 150 -117 13 -8
47 -34 76 -57 29 -24 55 -43 58 -43 3 0 14 -7 24 -15 48 -43 132 -105 141
-105 6 0 11 -4 11 -10 0 -5 18 -19 40 -30 22 -11 40 -25 40 -30 0 -6 4 -10 10
-10 10 0 70 -38 110 -70 14 -11 31 -20 38 -20 6 0 12 -5 12 -10 0 -6 11 -15
24 -20 24 -9 51 -28 87 -62 9 -9 19 -14 22 -12 2 2 21 -9 43 -26 21 -16 48
-37 59 -45 10 -8 23 -15 28 -15 5 0 31 -18 57 -40 26 -22 55 -40 63 -40 9 0
20 -6 24 -13 4 -7 31 -27 58 -45 28 -17 58 -37 67 -44 10 -7 34 -24 53 -38 47
-34 53 -70 27 -184 -23 -101 -35 -203 -33 -287 1 -30 -5 -72 -14 -92 -19 -45
-19 -97 -2 -122 19 -25 26 -10 33 67 3 34 8 70 11 78 6 15 12 87 17 200 2 36
6 79 9 95 9 46 28 223 31 285 21 403 28 1105 13 1440 -20 453 -20 459 -31 515
-7 38 -16 144 -20 262 -2 50 -7 96 -11 102 -3 6 -4 11 -1 11 2 0 0 15 -5 33
-11 36 -15 75 -24 196 -3 46 -10 91 -14 100 -11 20 -20 88 -33 259 -1 6 -5 12
-10 12 -4 0 -7 3 -6 8 1 4 -2 27 -5 52 -4 25 -9 70 -12 100 -3 30 -6 61 -7 68
-1 6 -5 12 -10 12 -5 0 -8 6 -7 13 1 6 -1 28 -4 47 -4 19 -9 55 -11 80 -2 25
-11 65 -19 90 -9 25 -17 68 -18 95 -2 28 -11 70 -20 95 -10 25 -18 68 -20 95
-1 28 -9 66 -17 85 -7 19 -17 62 -22 95 -4 33 -14 74 -21 90 -7 17 -14 44 -16
60 -9 69 -11 78 -33 130 -5 11 -11 38 -13 60 -2 22 -9 50 -16 63 -6 12 -16 48
-22 79 -6 32 -15 63 -20 70 -6 6 -12 31 -15 55 -3 23 -14 62 -24 85 -11 24
-20 54 -20 67 0 13 -9 43 -19 67 -11 24 -21 60 -24 79 -3 19 -12 49 -20 65 -9
17 -17 44 -20 60 -2 17 -11 47 -20 67 -10 21 -17 47 -17 58 0 11 -9 38 -20 60
-11 22 -20 48 -20 58 0 10 -9 36 -19 58 -11 23 -21 52 -23 65 -2 13 -11 38
-20 55 -10 17 -19 42 -20 55 -2 13 -11 38 -20 54 -8 17 -18 47 -22 68 -4 20
-11 37 -16 37 -4 0 -14 23 -21 50 -7 28 -17 50 -21 50 -5 0 -7 4 -3 9 3 5 1
12 -5 16 -5 3 -10 14 -10 24 0 9 -9 36 -20 59 -11 22 -20 46 -20 52 0 7 -7 24
-15 38 -8 15 -22 47 -31 72 -30 86 -40 108 -53 124 -7 9 -11 16 -8 16 3 0 0
12 -8 27 -8 15 -12 30 -9 35 3 4 0 8 -6 8 -6 0 -8 5 -5 10 3 6 2 10 -4 10 -6
0 -14 12 -17 28 -4 15 -15 43 -24 62 -22 45 -57 120 -64 140 -3 8 -10 22 -15
30 -5 8 -21 42 -36 75 -36 81 -71 157 -94 203 -5 9 -31 62 -57 117 -27 55 -51
102 -55 105 -3 3 -10 16 -14 30 -4 14 -11 30 -16 36 -5 6 -26 44 -47 85 -39
75 -58 112 -73 139 -5 8 -18 34 -30 58 -12 23 -25 45 -30 48 -5 3 -9 13 -9 23
0 10 -9 26 -20 36 -11 10 -20 26 -20 35 0 10 -7 23 -15 30 -8 6 -17 21 -21 32
-3 11 -19 39 -34 61 -15 23 -37 59 -49 80 -39 70 -64 112 -82 142 -10 17 -28
46 -39 65 -11 19 -28 47 -38 62 -9 15 -42 67 -72 115 -45 73 -106 167 -193
296 -6 11 -22 33 -34 50 -13 17 -23 36 -23 42 0 5 -9 16 -20 23 -11 7 -20 18
-20 26 0 7 -9 21 -20 31 -11 10 -20 24 -20 32 0 7 -4 13 -8 13 -5 0 -15 12
-23 27 -8 15 -21 35 -29 44 -8 10 -20 24 -25 31 -17 20 -99 138 -110 157 -6
10 -17 25 -25 34 -18 19 -22 24 -80 102 -25 33 -48 62 -52 63 -5 2 -8 8 -8 13
0 5 -6 17 -14 26 -67 82 -106 133 -106 137 0 3 -9 15 -20 26 -10 10 -56 66
-101 122 -45 57 -85 105 -88 108 -4 3 -14 14 -22 26 -12 18 -75 92 -134 159
-11 13 -33 40 -50 60 -16 21 -55 65 -87 99 -32 34 -58 66 -58 73 0 6 -9 15
-20 18 -11 3 -20 11 -20 17 0 5 -20 31 -44 57 -24 25 -59 62 -76 81 -72 79
-440 457 -524 538 -49 48 -124 120 -165 161 -42 40 -104 98 -139 130 -35 31
-81 72 -102 91 -22 19 -60 53 -85 75 -25 22 -63 56 -84 75 -64 58 -93 83 -151
130 -30 24 -59 49 -65 54 -14 15 -125 107 -159 131 -16 11 -35 27 -44 35 -17
16 -115 94 -157 124 -14 11 -36 28 -48 38 -59 48 -76 61 -127 99 -30 22 -64
47 -75 55 -95 71 -207 152 -225 164 -13 8 -32 23 -42 33 -10 9 -22 17 -26 17
-5 0 -17 8 -28 18 -10 10 -39 29 -64 44 -25 14 -54 35 -64 47 -11 12 -24 21
-31 21 -7 0 -20 9 -30 20 -10 11 -23 20 -30 20 -7 0 -20 9 -30 20 -10 11 -22
20 -26 20 -7 0 -131 79 -155 99 -5 4 -21 14 -34 21 -14 7 -31 19 -38 27 -7 7
-20 13 -27 13 -8 0 -18 6 -22 13 -4 7 -19 18 -33 25 -14 7 -45 26 -70 42 -25
16 -54 34 -65 40 -11 6 -38 22 -60 35 -22 14 -54 32 -72 40 -17 8 -34 19 -38
25 -4 6 -21 17 -38 26 -50 24 -92 47 -97 54 -3 3 -20 12 -37 19 -18 8 -33 17
-33 21 0 4 -11 11 -24 14 -14 3 -31 12 -38 19 -7 6 -29 20 -48 29 -19 10 -66
35 -105 58 -38 22 -87 47 -107 56 -21 9 -38 20 -38 25 0 5 -5 9 -12 9 -16 0
-140 61 -156 77 -7 7 -22 13 -31 13 -10 0 -30 9 -44 20 -14 11 -32 20 -40 20
-7 0 -24 9 -37 20 -13 11 -28 20 -33 20 -15 0 -121 53 -125 62 -2 4 -9 8 -15
8 -6 0 -61 23 -122 51 -221 103 -256 119 -261 119 -6 0 -88 36 -134 60 -20 9
-50 21 -68 25 -18 3 -32 10 -32 15 0 5 -15 11 -32 15 -18 4 -43 14 -56 22 -13
8 -31 16 -40 18 -20 4 -207 77 -270 106 -23 10 -50 19 -60 19 -10 0 -28 8 -42
17 -13 9 -34 18 -47 19 -13 2 -38 10 -56 19 -17 9 -48 20 -67 25 -51 13 -152
49 -174 61 -11 6 -33 13 -50 16 -17 3 -47 13 -68 24 -20 10 -47 19 -58 19 -12
0 -34 7 -50 15 -16 8 -46 18 -67 21 -21 3 -43 10 -49 15 -6 5 -39 16 -75 25
-35 9 -68 20 -74 24 -5 5 -28 11 -50 15 -51 8 -54 9 -90 25 -16 7 -45 15 -64
17 -18 2 -50 11 -70 19 -20 8 -54 18 -76 21 -22 3 -56 12 -75 20 -19 8 -48 16
-65 19 -39 5 -62 10 -105 24 -19 6 -53 13 -75 16 -22 4 -56 13 -75 20 -19 8
-50 17 -70 20 -63 9 -95 16 -115 27 -11 6 -41 12 -67 14 -25 2 -66 10 -90 19
-24 8 -68 17 -98 20 -30 3 -76 12 -101 19 -26 8 -68 17 -94 19 -81 9 -129 17
-146 26 -9 5 -46 12 -82 15 -37 3 -92 13 -123 21 -31 8 -81 16 -112 19 -97 9
-156 17 -180 26 -25 10 -74 16 -194 24 -42 3 -87 9 -101 14 -23 9 -68 13 -281
26 -49 3 -92 8 -96 10 -19 12 -66 16 -365 30 -60 3 -148 10 -195 16 -69 10
-1252 22 -1263 14z"/>
<path d="M19272 18346 c-49 -17 -82 -70 -82 -132 0 -44 6 -61 33 -100 17 -25
37 -53 42 -62 11 -17 21 -28 81 -93 22 -24 65 -75 95 -114 29 -38 58 -75 64
-81 5 -6 21 -26 35 -44 14 -18 31 -39 38 -46 6 -7 12 -16 12 -21 0 -4 11 -21
25 -38 13 -16 28 -34 32 -40 14 -18 128 -185 138 -203 6 -9 24 -37 40 -61 17
-24 36 -56 44 -70 8 -14 17 -28 20 -31 12 -9 61 -90 61 -99 0 -5 7 -14 15 -21
8 -7 21 -24 28 -39 8 -14 24 -44 37 -66 13 -22 32 -56 42 -75 10 -19 30 -53
43 -75 13 -22 31 -53 39 -70 9 -16 27 -48 40 -70 14 -22 31 -54 39 -71 8 -17
20 -35 26 -38 6 -4 11 -18 11 -32 0 -13 4 -24 8 -24 5 0 23 -30 41 -67 19 -38
37 -75 42 -83 12 -20 60 -119 74 -150 5 -14 23 -50 39 -80 17 -30 31 -63 33
-74 2 -10 12 -29 23 -43 11 -14 20 -34 20 -44 0 -9 6 -24 13 -31 17 -16 37
-74 30 -82 -4 -3 -2 -6 4 -6 6 0 16 -15 23 -32 18 -48 34 -82 42 -88 4 -3 8
-17 10 -30 2 -14 11 -36 21 -50 9 -13 17 -34 17 -45 0 -11 9 -35 20 -53 11
-18 20 -38 20 -44 0 -6 8 -29 19 -52 10 -23 23 -54 29 -71 5 -16 16 -46 22
-65 7 -19 19 -48 26 -65 18 -39 43 -110 58 -160 6 -22 19 -55 29 -74 9 -19 17
-41 17 -50 0 -9 9 -35 20 -58 10 -23 21 -55 23 -70 3 -15 12 -41 20 -58 9 -16
18 -43 20 -60 3 -16 12 -46 20 -65 8 -19 17 -52 20 -73 3 -20 9 -43 15 -50 6
-6 13 -30 17 -52 4 -22 15 -65 26 -95 10 -30 20 -71 22 -90 3 -19 11 -52 20
-72 8 -20 17 -54 18 -75 2 -21 7 -44 12 -50 5 -7 6 -13 2 -13 -4 0 -2 -7 5
-15 7 -8 9 -15 6 -15 -4 0 -2 -8 3 -18 5 -9 12 -37 15 -62 6 -53 9 -66 23
-100 6 -14 13 -47 16 -75 3 -27 12 -77 20 -110 9 -33 18 -88 21 -123 3 -35 11
-73 18 -85 6 -12 10 -22 9 -22 -2 0 0 -20 3 -45 3 -25 8 -70 11 -102 3 -31 10
-69 16 -85 6 -15 10 -28 8 -28 -1 0 1 -22 5 -50 4 -27 8 -81 10 -120 3 -38 7
-81 10 -95 16 -68 24 -159 31 -345 2 -60 8 -159 12 -220 9 -149 10 -559 0
-670 -5 -49 -10 -139 -12 -200 -8 -213 -17 -305 -31 -345 -3 -8 -7 -49 -10
-90 -5 -88 -17 -185 -24 -185 -3 0 -8 -36 -14 -95 -11 -103 -15 -125 -30 -185
-9 -32 -16 -73 -16 -91 0 -17 -7 -53 -16 -80 -8 -27 -18 -69 -20 -94 -3 -25
-13 -67 -22 -95 -8 -27 -17 -64 -19 -81 -1 -18 -9 -51 -18 -75 -9 -24 -18 -55
-21 -69 -13 -72 -17 -87 -27 -105 -6 -11 -13 -33 -15 -49 -2 -15 -8 -40 -14
-55 -14 -31 -13 -29 -23 -66 -24 -90 -119 -362 -151 -432 -8 -17 -14 -36 -14
-43 0 -6 -8 -25 -17 -43 -9 -18 -18 -39 -19 -47 -3 -14 -15 -42 -67 -160 -11
-25 -28 -63 -38 -85 -62 -140 -153 -328 -191 -395 -4 -8 -14 -26 -20 -40 -26
-54 -111 -201 -119 -206 -5 -3 -9 -14 -9 -24 0 -10 -7 -25 -15 -34 -8 -8 -20
-25 -25 -38 -6 -13 -24 -43 -40 -68 -16 -25 -33 -52 -37 -60 -10 -23 -56 -93
-70 -108 -7 -7 -13 -17 -13 -22 0 -5 -6 -15 -13 -22 -7 -7 -24 -33 -39 -58
-14 -25 -36 -56 -47 -69 -12 -13 -21 -29 -21 -36 0 -7 -9 -20 -20 -30 -11 -10
-20 -24 -20 -31 0 -7 -6 -17 -14 -21 -7 -4 -19 -19 -26 -32 -7 -14 -17 -30
-21 -35 -10 -12 -95 -131 -119 -167 -8 -12 -34 -46 -57 -75 -24 -29 -43 -56
-43 -61 0 -5 -8 -16 -17 -24 -19 -17 -24 -24 -83 -99 -19 -25 -40 -51 -47 -58
-7 -7 -13 -17 -13 -21 0 -3 -15 -22 -33 -41 -19 -19 -65 -73 -103 -120 -38
-47 -78 -96 -89 -109 -36 -42 -140 -154 -162 -174 -13 -12 -23 -24 -23 -28 0
-14 -332 -353 -480 -489 -56 -52 -124 -115 -151 -140 -27 -25 -70 -63 -96 -85
-26 -22 -65 -57 -86 -77 -22 -21 -46 -38 -54 -38 -8 0 -11 -4 -8 -10 3 -5 2
-10 -2 -10 -5 0 -31 -19 -58 -41 -81 -67 -113 -92 -250 -199 -71 -55 -141
-109 -153 -120 -13 -11 -26 -20 -29 -20 -2 0 -37 -24 -76 -53 -40 -30 -94 -69
-122 -87 -27 -19 -52 -36 -55 -39 -7 -9 -176 -123 -213 -145 -18 -10 -34 -21
-37 -25 -7 -9 -68 -51 -75 -51 -3 0 -27 -15 -53 -34 -27 -18 -62 -41 -78 -50
-16 -9 -47 -28 -69 -41 -22 -14 -51 -31 -65 -38 -14 -6 -29 -15 -35 -20 -38
-29 -101 -65 -107 -61 -4 3 -8 1 -8 -5 0 -5 -18 -17 -40 -27 -22 -10 -40 -21
-40 -25 0 -6 -30 -19 -53 -23 -4 0 -11 -6 -15 -12 -4 -6 -38 -26 -77 -44 -38
-19 -71 -37 -73 -42 -2 -4 -19 -10 -38 -14 -19 -3 -34 -10 -34 -14 0 -5 -31
-24 -70 -44 -38 -19 -70 -32 -70 -29 0 3 -8 0 -17 -9 -22 -17 -121 -68 -135
-68 -5 0 -21 -9 -35 -20 -14 -11 -32 -20 -40 -20 -8 0 -27 -9 -43 -20 -15 -11
-37 -21 -47 -23 -11 -1 -32 -10 -46 -20 -15 -9 -35 -18 -46 -20 -10 -2 -25 -8
-33 -14 -7 -6 -24 -14 -37 -18 -14 -4 -45 -18 -70 -30 -25 -13 -49 -21 -53
-19 -4 3 -8 1 -8 -5 0 -6 -21 -17 -47 -24 -27 -8 -64 -24 -83 -35 -19 -11 -43
-19 -52 -17 -9 2 -19 -3 -22 -10 -2 -7 -20 -16 -38 -20 -18 -4 -51 -16 -73
-25 -97 -43 -141 -60 -160 -63 -11 -2 -39 -13 -61 -25 -23 -11 -44 -18 -48
-15 -3 3 -11 1 -18 -4 -7 -6 -31 -16 -53 -22 -22 -7 -47 -15 -55 -17 -8 -3
-15 -4 -15 -2 0 1 -11 -5 -25 -15 -13 -9 -32 -17 -42 -17 -10 0 -37 -9 -60
-19 -24 -10 -104 -38 -178 -61 -74 -23 -157 -51 -185 -61 -27 -10 -61 -21 -75
-23 -14 -3 -26 -5 -27 -7 -2 -1 -6 -2 -10 -3 -5 -1 -24 -7 -43 -14 -19 -6 -47
-13 -61 -16 -15 -2 -40 -11 -55 -19 -16 -8 -50 -17 -76 -21 -26 -4 -50 -11
-53 -16 -3 -4 -24 -11 -48 -15 -23 -3 -69 -15 -102 -26 -33 -10 -77 -21 -99
-24 -21 -2 -43 -8 -50 -14 -11 -9 -41 -16 -106 -25 -19 -3 -49 -12 -65 -20
-17 -8 -51 -17 -77 -19 -25 -3 -56 -11 -69 -17 -12 -7 -36 -14 -53 -16 -71
-10 -102 -16 -112 -25 -6 -5 -39 -13 -75 -18 -35 -5 -80 -16 -99 -24 -19 -9
-55 -17 -80 -20 -44 -5 -185 -38 -247 -58 -35 -11 -57 -16 -116 -24 -22 -4
-51 -11 -66 -16 -14 -6 -51 -15 -81 -20 -72 -13 -73 -13 -86 -22 -11 -7 -64
-17 -114 -22 -14 -2 -26 -4 -27 -5 -2 -1 -6 -3 -10 -5 -5 -1 -19 -6 -33 -12
-14 -6 -49 -13 -78 -17 -30 -3 -67 -13 -83 -21 -16 -9 -31 -15 -34 -14 -14 3
-100 -14 -130 -27 -19 -8 -47 -14 -62 -14 -15 0 -41 -7 -57 -15 -25 -13 -50
-19 -116 -28 -8 -2 -19 -5 -25 -8 -16 -10 -77 -28 -115 -34 -19 -3 -39 -10
-45 -15 -6 -5 -24 -11 -40 -14 -17 -3 -43 -8 -60 -12 -16 -3 -32 -9 -35 -13
-3 -5 -25 -13 -50 -19 -44 -10 -94 -26 -195 -63 -27 -10 -67 -21 -87 -25 -21
-3 -38 -10 -38 -14 0 -4 -17 -11 -37 -15 -21 -4 -50 -13 -66 -22 -16 -8 -37
-16 -47 -18 -10 -2 -38 -13 -62 -24 -25 -11 -56 -22 -69 -25 -34 -6 -59 -17
-59 -25 0 -4 -11 -8 -25 -9 -13 -1 -41 -11 -62 -22 -21 -11 -43 -20 -49 -20
-12 0 -111 -42 -155 -65 -14 -8 -38 -16 -54 -19 -16 -3 -31 -10 -34 -15 -4 -5
-26 -17 -51 -26 -89 -33 -105 -40 -130 -57 -13 -10 -29 -18 -34 -18 -15 0
-301 -142 -304 -151 -2 -5 -10 -9 -17 -9 -7 0 -42 -16 -77 -35 -34 -19 -70
-38 -78 -41 -8 -3 -22 -10 -30 -15 -17 -10 -68 -37 -120 -65 -19 -10 -41 -24
-48 -31 -7 -7 -22 -13 -33 -13 -10 0 -19 -4 -19 -8 0 -8 -35 -29 -115 -70 -16
-9 -34 -20 -40 -24 -25 -21 -85 -57 -104 -63 -12 -3 -21 -10 -21 -15 0 -4 -13
-13 -30 -19 -16 -5 -30 -15 -30 -20 0 -6 -6 -11 -14 -11 -7 0 -30 -13 -51 -30
-20 -16 -41 -27 -46 -24 -5 3 -9 1 -9 -4 0 -4 -18 -18 -39 -30 -22 -12 -41
-26 -43 -31 -9 -26 -156 -29 -151 -3 1 6 -16 13 -39 17 -23 4 -50 16 -62 26
-11 11 -32 19 -46 19 -15 0 -35 9 -45 20 -10 11 -29 20 -42 20 -12 0 -31 8
-41 17 -19 18 -25 20 -64 26 -11 2 -26 10 -32 18 -11 14 -29 21 -56 22 -8 0
-23 9 -34 19 -11 10 -30 18 -43 18 -13 0 -26 7 -29 15 -3 8 -22 17 -42 21 -20
4 -45 15 -56 25 -11 11 -29 19 -41 19 -12 0 -30 8 -41 18 -10 9 -30 19 -44 21
-13 1 -31 10 -40 20 -8 9 -24 18 -34 19 -11 2 -34 15 -51 28 -18 13 -35 21
-38 17 -4 -3 -7 -2 -7 4 0 6 -9 13 -20 16 -22 6 -28 47 -7 47 8 0 24 9 37 20
13 11 28 20 34 21 6 0 31 16 56 35 25 18 55 38 68 44 12 5 22 14 22 20 0 6 11
15 24 20 24 9 51 28 87 62 9 9 26 19 38 23 12 3 21 10 21 14 0 5 13 14 29 21
16 6 32 18 35 26 3 8 12 14 19 14 8 0 22 9 32 20 10 11 24 20 32 20 7 0 21 9
30 20 10 11 22 20 29 20 6 0 36 18 68 40 31 22 60 40 65 40 4 0 16 9 26 20 10
11 22 20 27 20 5 0 21 8 36 18 91 62 154 102 160 102 5 0 23 11 42 25 18 13
37 22 41 19 5 -3 9 -1 9 5 0 5 34 28 75 51 41 23 77 45 80 51 4 5 14 9 24 9
10 0 26 9 36 20 10 11 26 20 35 20 9 0 25 8 36 19 11 10 31 22 45 26 13 4 26
11 29 15 3 3 21 15 40 25 91 47 186 97 200 104 8 5 26 14 40 20 14 6 32 15 40
20 8 5 26 14 40 20 14 6 32 15 40 20 8 5 26 14 40 20 14 6 32 15 40 19 14 9
77 38 130 61 14 6 32 15 40 19 61 34 102 52 119 52 12 0 21 4 21 9 0 5 15 14
33 20 17 7 49 21 69 32 20 10 43 19 50 19 7 0 29 8 48 19 19 10 50 22 68 25
17 4 32 11 32 16 0 4 23 13 50 20 28 7 50 16 50 20 0 5 15 12 33 16 42 10 37
8 79 27 21 10 43 17 50 17 7 0 30 9 51 20 20 11 46 20 57 20 11 0 34 9 52 20
18 11 41 20 51 20 10 0 35 9 57 20 22 11 49 20 60 20 11 0 38 9 60 20 22 11
46 20 55 20 9 0 32 7 53 16 20 10 46 18 57 20 11 2 45 13 75 23 30 11 70 22
88 26 18 4 45 13 60 21 15 8 37 14 50 14 12 0 38 6 56 14 19 8 60 20 93 26 32
7 63 16 69 21 6 5 38 14 70 20 32 6 70 17 84 24 14 7 48 16 75 20 28 4 55 11
62 16 6 6 39 14 74 20 34 5 67 13 73 17 14 8 20 10 85 21 29 6 69 16 90 23 20
7 38 13 41 13 3 1 28 5 55 10 58 10 52 8 87 23 15 6 48 13 73 16 25 2 51 9 58
15 8 6 42 15 78 20 35 5 81 16 101 25 21 9 49 16 63 16 14 0 51 9 83 19 31 10
76 22 99 25 24 3 56 12 72 21 17 8 41 15 55 15 14 0 52 9 83 19 32 11 76 22
98 25 22 3 54 12 70 20 17 8 46 16 65 18 19 2 62 12 95 22 33 10 92 27 130 38
39 10 90 26 115 34 45 15 62 19 113 28 16 3 34 10 41 15 7 6 37 16 67 22 30 6
66 18 81 25 15 8 37 14 50 14 13 1 41 9 63 20 22 11 49 20 60 20 11 0 38 9 60
20 22 11 48 19 58 20 10 0 39 8 65 18 70 28 142 52 185 63 21 5 48 16 60 23
12 8 38 17 57 21 19 4 44 14 55 21 11 8 29 14 40 14 11 0 37 9 57 20 20 11 49
22 63 24 15 3 38 12 51 21 13 8 29 15 36 15 7 0 30 9 51 20 20 11 45 20 56 20
10 0 29 8 42 19 13 10 41 21 62 25 20 4 37 11 37 15 0 8 27 20 55 25 12 2 90
37 140 63 46 24 113 53 122 53 6 0 21 9 35 20 14 10 37 21 52 24 14 3 33 12
42 20 8 9 22 16 31 16 8 0 26 9 40 20 14 11 34 20 44 20 9 0 24 6 31 14 8 7
49 30 91 51 43 21 80 42 83 46 3 5 13 9 23 9 10 0 26 9 36 20 10 11 26 20 36
20 10 0 21 5 25 11 3 6 25 19 49 29 24 10 46 23 49 29 4 6 15 11 25 11 10 0
26 9 36 20 10 11 26 20 37 20 10 0 18 5 18 11 0 5 15 16 33 24 19 8 39 21 47
29 7 9 20 16 30 16 10 0 23 7 30 15 7 8 25 21 41 30 16 8 42 22 58 30 16 9 34
22 41 30 7 8 16 15 21 15 9 0 101 60 109 71 3 3 15 9 28 13 12 4 22 12 22 17
0 5 6 9 14 9 7 0 20 7 27 16 8 9 32 28 54 43 22 14 47 30 56 36 8 5 32 21 52
33 20 13 37 28 37 33 0 5 6 9 13 9 8 0 23 8 35 18 11 10 33 27 48 38 15 10 38
29 51 42 13 12 29 22 34 22 6 0 16 6 24 12 7 7 30 27 50 43 20 17 46 38 56 48
10 9 22 17 25 17 9 0 134 101 164 133 14 15 30 27 35 27 6 0 17 9 25 20 8 11
18 20 23 20 4 0 26 17 49 38 60 54 81 73 132 116 25 21 59 50 74 65 16 14 77
71 137 126 168 156 408 400 500 509 95 113 112 132 145 167 19 19 47 51 61 70
15 19 36 45 48 58 11 13 21 27 21 30 0 3 15 22 33 42 17 20 43 51 57 69 14 19
53 69 88 112 34 43 62 82 62 86 0 8 23 38 67 91 13 14 23 32 23 39 0 6 4 12 8
12 5 0 14 11 20 25 7 14 16 31 22 38 46 56 60 76 60 84 0 6 9 18 20 28 11 10
20 24 20 32 0 7 9 21 19 30 11 9 18 19 16 23 -2 3 7 19 21 35 13 15 24 34 24
41 0 7 6 17 13 21 6 4 20 22 29 38 15 28 83 143 111 190 6 11 18 31 26 45 9
14 16 31 17 37 1 7 12 24 23 39 12 15 21 32 21 39 0 6 9 22 20 35 11 13 20 30
20 39 0 9 9 27 20 41 11 14 20 31 20 38 0 8 9 25 20 39 11 14 20 33 20 42 0 9
9 27 20 41 11 14 20 32 20 40 0 8 9 29 20 45 11 17 20 38 20 47 0 9 7 24 16
32 8 9 17 25 19 36 4 20 11 36 64 151 11 25 21 51 21 58 0 6 8 23 17 38 10 14
19 34 20 45 2 10 12 36 23 58 11 22 20 46 20 55 0 8 9 32 20 52 11 21 20 45
20 55 0 23 21 68 32 68 5 0 7 4 4 8 -7 11 14 102 24 102 5 0 11 19 15 43 4 23
14 58 22 77 8 19 17 49 20 65 3 17 12 48 20 70 8 22 19 64 24 94 5 29 15 65
23 80 7 14 14 43 15 65 1 21 8 54 16 72 8 19 11 34 8 34 -3 0 -1 6 4 13 5 6
11 32 12 56 2 24 9 64 17 90 8 25 17 71 20 101 3 30 10 73 16 95 16 64 18 76
24 155 4 63 15 132 31 200 2 8 6 65 8 125 3 61 7 142 10 180 2 39 8 117 11
175 9 134 9 396 1 525 -9 124 -15 237 -22 380 -2 61 -11 140 -18 177 -8 37
-15 100 -17 140 -5 130 -7 153 -13 168 -11 30 -17 66 -23 125 -11 126 -13 141
-24 175 -6 19 -13 55 -16 80 -9 83 -13 105 -24 145 -16 59 -20 79 -24 127 -5
50 -12 84 -21 98 -8 13 -15 48 -16 85 -1 17 -10 55 -19 85 -10 30 -19 73 -21
95 -2 22 -11 59 -21 83 -10 24 -18 57 -18 73 0 16 -9 52 -20 81 -11 29 -20 67
-20 84 0 17 -7 45 -16 62 -8 17 -19 53 -24 79 -4 26 -15 68 -23 93 -43 130
-57 177 -57 196 0 12 -9 41 -20 65 -11 24 -20 54 -20 67 0 13 -9 42 -19 66
-11 23 -21 53 -23 67 -6 36 -52 120 -83 151 -42 42 -116 62 -173 46 -40 -11
-76 -41 -104 -86 -19 -30 -20 -44 -15 -200 2 -92 7 -178 11 -192 17 -72 25
-140 32 -300 3 -69 7 -138 9 -155 2 -16 8 -59 12 -95 10 -80 11 -941 1 -1030
-4 -36 -10 -76 -13 -90 -3 -14 -7 -68 -10 -120 -8 -153 -14 -218 -26 -268 -6
-26 -13 -76 -15 -112 -6 -94 -18 -195 -23 -195 -5 0 -12 -44 -17 -105 -3 -36
-13 -92 -21 -125 -9 -33 -17 -80 -20 -105 -2 -25 -6 -60 -9 -77 -3 -18 -4 -34
-3 -35 1 -2 -4 -14 -11 -28 -8 -14 -15 -45 -17 -70 -2 -25 -11 -70 -20 -100
-9 -30 -18 -64 -19 -75 -2 -11 -6 -38 -9 -59 -3 -22 -9 -44 -13 -50 -8 -13
-11 -26 -22 -91 -4 -27 -15 -67 -24 -87 -9 -21 -16 -49 -16 -63 0 -14 -7 -42
-16 -63 -10 -20 -18 -44 -20 -52 -2 -8 -5 -29 -9 -46 -3 -18 -12 -45 -20 -61
-8 -16 -15 -44 -16 -63 -2 -19 -8 -42 -14 -50 -7 -8 -15 -28 -19 -45 -14 -62
-68 -225 -76 -225 -4 0 -7 -14 -8 -30 0 -17 -8 -45 -17 -63 -9 -17 -19 -45
-22 -62 -3 -16 -13 -46 -24 -67 -10 -20 -19 -43 -19 -50 -1 -7 -9 -31 -20 -53
-11 -22 -19 -46 -20 -52 0 -7 -9 -32 -20 -55 -10 -24 -30 -72 -44 -108 -22
-58 -35 -88 -80 -195 -31 -72 -59 -133 -77 -167 -10 -20 -19 -43 -19 -51 0 -8
-9 -26 -20 -40 -11 -14 -20 -35 -20 -46 0 -12 -6 -24 -14 -27 -8 -3 -17 -17
-21 -31 -3 -14 -24 -57 -45 -95 -22 -38 -40 -76 -40 -83 0 -7 -7 -18 -15 -25
-8 -6 -17 -22 -21 -33 -4 -12 -15 -34 -25 -49 -11 -14 -19 -33 -19 -42 0 -9
-7 -19 -15 -22 -8 -4 -15 -11 -15 -16 0 -9 -42 -86 -94 -171 -11 -18 -24 -41
-30 -52 -6 -11 -28 -46 -49 -78 -20 -31 -37 -60 -37 -63 0 -3 -11 -20 -25 -38
-14 -18 -25 -38 -25 -44 0 -7 -4 -12 -10 -12 -5 0 -10 -6 -10 -13 0 -7 -8 -22
-18 -33 -10 -10 -29 -39 -44 -64 -14 -25 -34 -55 -45 -67 -10 -12 -28 -37 -41
-55 -19 -27 -145 -200 -206 -283 -31 -41 -52 -68 -86 -109 -19 -23 -48 -59
-65 -80 -16 -21 -35 -44 -42 -51 -6 -6 -33 -38 -61 -71 -27 -32 -64 -76 -83
-96 -19 -20 -54 -60 -79 -88 -85 -97 -121 -135 -255 -270 -113 -115 -250 -245
-327 -312 -11 -9 -54 -48 -95 -85 -42 -37 -85 -75 -97 -83 -30 -21 -66 -52
-85 -73 -8 -9 -19 -17 -23 -17 -5 0 -16 -8 -26 -18 -10 -9 -33 -28 -51 -42
-18 -14 -41 -33 -49 -42 -9 -10 -22 -18 -28 -18 -7 0 -14 -3 -16 -8 -6 -13
-135 -112 -147 -112 -6 0 -11 -4 -11 -8 0 -5 -26 -26 -57 -48 -32 -21 -61 -43
-64 -47 -4 -5 -16 -14 -27 -20 -19 -11 -180 -119 -207 -140 -5 -4 -40 -26 -76
-50 -36 -23 -74 -48 -85 -55 -10 -7 -34 -19 -51 -27 -18 -9 -33 -19 -33 -24 0
-10 -39 -27 -52 -23 -5 1 -8 -2 -8 -8 0 -5 -15 -18 -34 -27 -71 -37 -186 -104
-191 -113 -3 -5 -18 -11 -34 -15 -16 -3 -32 -13 -35 -21 -3 -8 -13 -14 -23
-14 -10 0 -29 -9 -43 -20 -14 -11 -30 -20 -35 -20 -9 0 -61 -25 -140 -68 -65
-34 -189 -92 -199 -92 -6 0 -23 -8 -36 -17 -14 -10 -30 -18 -36 -19 -12 -2
-116 -48 -156 -70 -14 -8 -33 -14 -41 -14 -9 0 -38 -11 -66 -26 -28 -14 -56
-22 -61 -19 -6 3 -10 3 -10 -2 0 -10 -44 -29 -87 -38 -18 -4 -33 -10 -33 -15
0 -5 -15 -12 -32 -15 -18 -4 -51 -15 -73 -25 -22 -10 -54 -20 -71 -23 -17 -3
-42 -11 -55 -18 -26 -14 -28 -15 -74 -24 -16 -3 -34 -10 -40 -15 -6 -5 -23
-11 -38 -14 -38 -7 -67 -16 -102 -31 -16 -7 -46 -15 -66 -18 -19 -2 -45 -10
-57 -16 -19 -10 -108 -32 -139 -34 -7 0 -13 -4 -13 -8 0 -4 -19 -10 -42 -14
-24 -4 -70 -15 -103 -25 -33 -10 -78 -21 -100 -24 -52 -8 -65 -11 -95 -23 -14
-6 -45 -13 -70 -16 -25 -3 -67 -12 -95 -20 -27 -8 -70 -17 -95 -20 -25 -3 -61
-11 -80 -17 -19 -6 -51 -13 -70 -16 -81 -12 -97 -16 -145 -29 -27 -7 -75 -16
-105 -19 -30 -2 -71 -10 -90 -16 -36 -11 -67 -16 -143 -24 -56 -6 -71 -9 -77
-18 -5 -6 -65 -15 -152 -23 -21 -2 -66 -10 -100 -19 -35 -8 -85 -17 -113 -20
-27 -2 -79 -11 -115 -20 -36 -8 -92 -17 -125 -20 -33 -3 -82 -12 -110 -20 -27
-8 -77 -17 -110 -19 -33 -3 -73 -10 -89 -16 -16 -7 -61 -16 -100 -22 -90 -12
-95 -13 -130 -28 -15 -6 -33 -10 -40 -9 -6 1 -32 -1 -58 -6 -26 -4 -51 -7 -55
-7 -5 -1 -12 -4 -18 -9 -12 -9 -51 -17 -119 -25 -27 -3 -54 -9 -60 -14 -9 -7
-78 -22 -121 -26 -5 -1 -32 -9 -60 -18 -27 -9 -69 -18 -92 -19 -24 -2 -43 -6
-43 -9 0 -9 -82 -31 -119 -33 -17 0 -31 -4 -31 -7 0 -6 -15 -12 -65 -25 -5 -1
-28 -5 -50 -9 -22 -4 -46 -12 -54 -18 -13 -12 -27 -15 -73 -19 -16 -1 -28 -5
-28 -9 0 -6 -63 -28 -95 -32 -11 -1 -25 -6 -32 -10 -15 -9 -146 -55 -194 -67
-19 -5 -49 -16 -65 -25 -16 -8 -35 -15 -42 -15 -6 0 -29 -9 -49 -20 -21 -11
-46 -20 -55 -20 -10 0 -33 -9 -53 -20 -20 -11 -41 -20 -48 -20 -7 0 -28 -8
-47 -19 -19 -10 -50 -22 -67 -25 -18 -4 -33 -12 -33 -17 0 -5 -5 -9 -11 -9
-10 0 -114 -43 -195 -81 -22 -10 -45 -19 -51 -19 -6 0 -16 -7 -23 -15 -7 -8
-23 -15 -35 -15 -13 0 -25 -4 -27 -9 -1 -4 -41 -27 -88 -50 -47 -23 -92 -45
-100 -50 -14 -8 -71 -38 -170 -88 -19 -10 -37 -21 -40 -24 -3 -4 -21 -14 -40
-23 -52 -23 -164 -88 -170 -97 -3 -4 -17 -12 -30 -18 -14 -6 -79 -45 -145 -86
-66 -42 -128 -79 -138 -82 -9 -3 -17 -10 -17 -15 0 -5 -13 -14 -30 -19 -16 -6
-30 -14 -30 -19 0 -4 -13 -13 -30 -20 -16 -7 -30 -16 -30 -21 0 -4 -10 -11
-22 -15 -13 -4 -30 -15 -38 -24 -8 -9 -25 -20 -37 -24 -11 -4 -24 -13 -27 -21
-3 -8 -10 -15 -16 -15 -6 0 -37 -19 -69 -42 -33 -24 -69 -50 -81 -58 -37 -25
-94 -68 -112 -84 -10 -9 -21 -16 -24 -16 -5 0 -63 -42 -94 -68 -8 -7 -42 -33
-75 -58 -33 -24 -69 -51 -80 -59 -11 -8 -77 -60 -147 -115 -71 -55 -130 -100
-133 -100 -3 0 -24 -18 -47 -40 -24 -22 -46 -40 -50 -40 -3 0 -13 -6 -20 -12
-7 -7 -30 -26 -51 -41 -21 -16 -45 -36 -55 -46 -39 -39 -121 -101 -146 -111
l-28 -10 39 -38 c21 -21 40 -37 44 -36 3 2 34 -17 69 -42 35 -24 70 -44 77
-44 7 0 13 -5 13 -11 0 -5 16 -17 35 -25 19 -8 35 -18 35 -23 0 -6 10 -13 23
-16 12 -4 34 -18 49 -32 14 -14 29 -24 33 -23 4 2 14 -2 24 -8 61 -42 92 -61
110 -67 12 -3 21 -10 21 -15 0 -5 16 -14 35 -20 19 -6 35 -15 35 -20 0 -4 15
-14 33 -21 17 -7 38 -19 45 -26 7 -7 20 -13 27 -13 7 0 21 -7 29 -16 9 -9 22
-17 29 -18 7 -1 26 -12 41 -24 16 -12 36 -22 46 -22 9 0 25 -9 35 -20 10 -11
26 -20 36 -20 10 0 20 -4 24 -9 3 -5 39 -27 81 -47 41 -21 80 -44 86 -51 6 -7
18 -13 28 -13 9 0 25 -8 34 -19 9 -10 35 -21 56 -25 22 -3 40 -11 40 -16 0 -6
7 -10 16 -10 9 0 24 -8 33 -18 16 -17 33 -24 60 -25 8 0 23 -9 33 -19 10 -10
29 -18 43 -18 14 0 25 -4 25 -8 0 -11 56 -43 63 -36 3 3 16 -3 28 -15 13 -12
33 -21 46 -21 13 0 23 -4 23 -9 0 -8 40 -27 70 -33 8 -2 23 -11 34 -20 11 -10
28 -18 37 -18 10 0 25 -8 35 -17 9 -10 29 -19 43 -21 14 -1 33 -10 41 -20 8
-9 26 -18 40 -20 13 -1 36 -10 50 -19 14 -10 36 -19 49 -21 14 -2 37 -12 52
-23 15 -10 38 -19 51 -19 14 0 33 -9 43 -20 10 -11 31 -20 47 -20 15 0 28 -4
28 -9 0 -10 23 -20 60 -28 14 -2 34 -12 45 -23 11 -10 35 -21 54 -25 19 -4 48
-16 65 -26 17 -10 41 -19 53 -19 12 0 28 -7 37 -15 8 -8 30 -18 48 -22 18 -3
40 -12 48 -19 8 -7 29 -15 45 -19 17 -3 48 -14 70 -24 22 -10 54 -23 70 -29
84 -28 103 -36 133 -50 19 -9 41 -17 50 -18 35 -6 68 -16 80 -27 8 -6 21 -12
31 -13 53 -8 81 -16 81 -23 0 -5 27 -14 60 -20 33 -7 62 -16 65 -21 3 -5 27
-12 53 -16 26 -3 57 -13 70 -20 12 -8 41 -19 65 -24 43 -9 105 -28 187 -56 25
-9 63 -18 84 -20 22 -2 50 -11 63 -19 13 -9 23 -13 23 -9 0 4 6 2 13 -3 23
-17 52 -8 92 30 22 20 47 37 55 37 8 0 31 9 51 19 20 11 45 21 55 23 10 2 28
11 38 21 17 15 28 18 51 17 3 -1 17 8 32 20 14 11 32 20 39 20 7 0 34 11 60
25 25 14 50 22 55 19 5 -3 9 -1 9 4 0 10 54 35 76 35 8 0 14 4 14 9 0 9 50 32
63 29 5 -1 20 8 34 19 14 11 32 20 40 20 8 0 31 8 51 19 74 37 128 60 154 67
15 3 32 12 39 20 6 8 20 14 31 14 10 0 36 9 58 20 22 11 45 20 52 20 7 0 30 9
51 20 20 11 45 22 55 24 9 2 35 11 56 20 22 10 48 20 59 22 10 2 24 8 31 13 6
5 34 15 61 22 28 7 56 19 63 26 7 7 25 13 40 13 15 0 42 9 60 20 18 11 45 22
60 23 15 2 41 11 57 19 17 9 44 18 60 20 17 2 44 12 62 21 18 9 40 17 50 17
10 0 38 10 62 21 25 11 60 20 78 21 18 1 33 4 33 8 0 8 68 32 102 35 12 1 24
4 26 5 1 1 5 3 10 5 4 1 20 7 35 13 16 7 35 12 42 12 8 0 37 9 65 20 28 11 60
20 71 20 11 0 36 7 57 16 42 19 44 20 92 27 20 4 52 13 73 22 21 8 55 16 77
18 22 1 40 5 40 8 0 7 70 28 110 33 14 2 42 11 62 20 21 9 56 18 78 20 22 2
46 9 53 15 8 6 31 13 53 16 36 6 74 13 99 18 6 2 15 6 21 9 5 4 41 12 80 19
38 6 78 16 89 22 11 6 36 12 55 14 19 2 64 12 100 22 36 11 87 22 115 26 27 3
54 10 60 15 9 8 39 14 110 24 17 2 55 11 85 19 30 9 75 19 100 22 24 4 52 10
60 15 9 5 48 14 86 21 38 6 77 16 87 21 10 5 39 12 65 15 26 3 74 13 107 24
33 10 81 20 107 23 26 2 53 8 59 12 7 4 49 15 93 24 45 10 115 25 156 35 41 9
82 18 90 20 8 2 16 4 18 5 1 2 6 3 11 4 5 0 13 4 17 9 4 4 18 7 31 7 12 0 49
9 80 19 32 11 76 22 97 26 22 3 45 10 53 16 7 6 13 8 13 4 0 -4 7 -1 17 6 9 8
18 12 20 10 6 -6 72 9 100 24 15 8 39 15 53 15 14 0 45 9 69 20 24 11 53 20
65 20 11 1 39 9 61 20 22 11 51 20 65 20 14 0 43 9 65 20 22 11 51 19 66 20
14 0 30 5 37 12 7 7 12 9 12 4 0 -4 10 0 22 8 12 9 32 16 43 16 11 1 38 9 60
20 22 11 48 19 57 20 10 0 37 8 60 19 24 10 59 24 78 31 19 7 53 18 75 26 22
8 52 21 67 29 14 8 32 15 40 15 7 0 30 9 51 20 20 11 42 20 48 20 7 0 31 9 55
20 24 11 64 29 88 40 24 11 48 20 53 20 6 0 46 18 89 40 43 22 85 40 92 40 8
0 25 9 39 20 14 11 33 20 43 20 10 0 29 9 43 20 14 11 29 20 34 20 15 0 132
60 138 71 4 5 14 9 24 9 10 0 30 9 45 21 15 11 32 22 39 23 6 1 23 9 37 18 14
9 34 18 45 20 11 2 27 11 36 21 9 9 23 17 31 17 8 0 29 11 47 24 18 14 39 22
47 19 8 -3 14 0 14 6 0 7 15 19 33 27 17 9 55 28 82 44 28 16 60 33 72 39 12
6 44 25 71 44 26 19 58 38 70 41 12 4 22 11 22 16 0 7 32 23 51 25 3 0 13 8
23 17 10 10 24 18 32 18 8 0 14 4 14 9 0 5 15 16 34 25 18 8 39 22 46 31 7 8
16 15 21 15 7 0 65 35 94 57 59 45 85 63 93 63 5 0 17 9 27 20 10 11 22 20 26
20 5 0 28 14 51 30 24 17 54 38 68 48 14 9 29 22 33 29 4 7 13 13 19 13 5 0
24 11 42 25 36 29 29 24 126 95 41 30 82 62 90 70 9 8 28 24 44 35 15 11 36
27 45 35 10 8 33 26 52 40 18 14 40 33 48 42 9 10 19 18 23 18 4 0 18 10 31
23 22 20 60 52 128 110 47 39 212 190 272 250 32 31 61 57 63 57 16 0 525 531
633 660 12 14 32 36 45 50 13 14 32 38 42 55 10 16 28 38 39 50 46 47 95 108
95 118 0 5 6 15 14 21 12 9 106 127 164 204 9 13 22 29 28 35 9 11 34 46 129
182 19 28 38 55 42 60 50 66 63 85 63 90 0 6 17 29 60 82 6 7 15 24 22 38 6
14 14 25 18 25 4 0 13 14 20 30 7 17 16 30 19 30 4 0 15 15 24 33 10 17 26 46
37 62 11 17 27 44 34 61 8 17 22 36 30 44 9 7 16 18 16 24 0 7 7 21 15 31 34
45 65 97 65 110 0 8 6 18 13 22 6 4 20 24 30 43 9 19 35 67 57 105 22 39 48
89 59 111 11 23 24 45 30 48 6 4 11 15 11 24 0 9 9 28 20 42 11 14 20 32 20
40 0 8 9 26 20 40 11 14 20 32 20 40 0 8 9 26 20 40 11 14 20 32 20 41 0 9 9
26 20 39 11 13 20 30 20 39 0 9 9 27 20 41 11 14 20 31 20 39 0 7 9 29 21 47
11 19 18 34 14 34 -3 0 5 21 18 48 24 44 50 105 77 180 7 17 15 32 19 32 4 0
8 11 9 25 1 13 11 41 22 62 11 21 20 45 20 53 0 8 9 32 20 53 11 20 20 45 20
54 0 10 9 33 20 51 11 18 20 40 20 50 0 9 7 30 16 47 8 16 20 51 25 77 6 27
14 48 19 48 5 0 11 19 15 41 4 23 14 58 23 78 9 20 17 50 20 66 2 17 10 44 18
60 9 17 17 44 20 60 7 53 16 90 26 102 5 6 11 33 15 60 3 26 12 64 21 83 8 19
17 53 20 75 2 22 10 58 19 80 8 22 16 60 19 85 3 25 12 68 20 95 9 28 17 68
20 90 9 76 14 102 24 130 6 16 13 58 16 94 5 58 11 95 30 166 3 11 7 52 9 90
6 93 15 177 20 195 11 38 16 83 20 185 8 182 17 358 21 395 6 52 5 505 0 580
-3 36 -8 119 -11 185 -12 247 -17 304 -30 343 -3 7 -7 50 -11 95 -9 143 -12
161 -27 222 -9 33 -17 87 -18 120 -2 33 -9 78 -17 100 -13 37 -18 68 -27 150
-1 17 -10 53 -19 80 -9 28 -18 68 -20 90 -2 22 -9 54 -16 70 -6 17 -15 55 -20
85 -4 30 -13 69 -20 85 -15 34 -18 46 -23 95 -2 20 -7 41 -11 48 -4 7 -4 12
-1 12 4 0 -1 7 -9 16 -9 8 -17 31 -17 50 -2 43 -2 44 -18 72 -7 13 -14 33 -16
45 -2 12 -6 34 -9 49 -2 14 -10 37 -17 50 -7 12 -16 39 -20 58 -8 42 -34 119
-60 178 -11 23 -19 51 -19 62 0 10 -9 34 -20 52 -10 19 -20 48 -22 66 -1 17
-5 32 -9 32 -4 0 -11 10 -15 23 -7 21 -9 28 -17 60 -2 6 -11 26 -20 44 -9 18
-17 40 -17 49 0 9 -9 31 -19 48 -11 17 -21 42 -23 56 -1 14 -5 27 -8 30 -12
12 -30 51 -30 66 0 9 -6 28 -14 42 -26 50 -68 143 -70 156 -1 8 -7 20 -13 28
-6 7 -15 27 -19 43 -4 17 -15 41 -26 54 -10 13 -18 29 -18 34 0 10 -68 156
-91 197 -5 8 -14 26 -19 40 -6 14 -15 33 -20 43 -10 17 -24 44 -43 82 -6 11
-15 29 -20 40 -6 11 -14 27 -19 35 -4 8 -17 33 -28 55 -20 40 -26 52 -49 90
-6 11 -18 34 -27 50 -8 17 -25 46 -37 67 -12 20 -37 62 -55 95 -18 32 -37 65
-43 73 -5 8 -15 26 -22 40 -23 47 -71 125 -79 128 -4 2 -8 9 -8 15 0 7 -9 23
-20 37 -11 14 -20 32 -20 40 0 8 -9 21 -20 28 -11 7 -20 18 -20 26 0 7 -9 23
-20 36 -11 13 -20 27 -20 31 0 5 -11 25 -25 46 -14 21 -30 45 -35 53 -5 8 -21
32 -35 53 -14 21 -25 40 -25 42 0 6 -128 199 -144 218 -9 9 -16 21 -16 25 0 5
-9 17 -20 27 -11 10 -20 23 -20 30 0 7 -9 20 -20 30 -11 10 -20 24 -20 32 0 7
-7 16 -15 19 -8 4 -15 11 -15 18 0 6 -11 24 -25 40 -14 16 -25 33 -25 37 0 4
-6 14 -13 21 -6 7 -30 39 -51 71 -22 31 -43 57 -48 57 -4 0 -8 5 -8 11 0 10
-116 173 -145 205 -5 6 -21 26 -35 44 -14 19 -33 42 -42 52 -10 10 -18 21 -18
24 0 5 -116 152 -130 164 -3 3 -21 25 -40 50 -19 25 -41 52 -49 62 -9 9 -27
31 -41 49 -14 18 -33 41 -42 51 -10 10 -18 22 -18 27 0 5 -4 11 -9 13 -5 2
-26 23 -46 48 -161 195 -513 548 -576 578 -55 27 -104 32 -147 18z"/>
<path d="M24155 15813 c-39 -9 -83 -52 -97 -95 -13 -38 -13 -48 2 -90 9 -26
24 -56 33 -66 9 -10 17 -23 17 -29 0 -6 3 -13 8 -15 4 -1 32 -32 62 -68 51
-61 99 -115 145 -163 11 -12 41 -48 68 -81 42 -53 157 -180 277 -307 25 -26
79 -85 120 -130 70 -78 408 -419 414 -419 1 0 37 -33 78 -72 42 -40 98 -92
124 -115 27 -23 69 -60 94 -82 25 -22 52 -41 61 -41 8 0 24 -7 35 -15 27 -21
58 -18 112 9 48 25 60 39 85 99 14 33 14 38 -16 98 -26 52 -70 103 -261 295
-266 267 -586 594 -586 599 0 2 -28 32 -62 68 -35 35 -110 115 -168 177 -247
265 -440 450 -440 424 0 -5 -4 -4 -8 2 -8 14 -67 23 -97 17z"/>
<path d="M23107 14951 c-67 -48 -81 -75 -80 -156 0 -57 5 -81 22 -108 11 -19
21 -40 21 -48 0 -7 9 -32 21 -56 11 -24 22 -49 23 -56 1 -6 9 -23 19 -37 9
-13 17 -34 17 -45 0 -11 9 -31 20 -45 11 -14 20 -33 20 -43 0 -10 9 -35 20
-57 11 -22 20 -46 20 -55 0 -9 9 -35 20 -57 11 -23 20 -50 20 -60 0 -9 9 -35
21 -57 11 -22 22 -52 24 -68 2 -15 11 -41 19 -58 9 -16 16 -40 16 -51 0 -12 9
-42 20 -67 11 -24 21 -58 23 -74 2 -16 7 -34 11 -41 4 -7 4 -12 0 -12 -4 0 0
-8 8 -17 8 -10 15 -29 16 -43 3 -34 7 -50 21 -85 7 -16 17 -52 22 -80 6 -27
11 -54 13 -60 1 -5 4 -15 8 -20 5 -9 12 -37 22 -95 1 -8 9 -40 18 -70 9 -30
19 -73 22 -95 3 -22 12 -62 20 -90 8 -27 17 -73 20 -100 3 -28 11 -66 17 -85
13 -43 17 -68 23 -145 3 -33 10 -76 16 -95 5 -19 13 -60 15 -90 13 -123 21
-186 30 -220 6 -20 14 -107 20 -205 2 -44 7 -91 9 -104 20 -94 27 -287 28
-756 1 -380 -6 -543 -27 -655 -8 -38 -11 -91 -15 -214 -2 -44 -6 -96 -11 -115
-4 -20 -10 -52 -13 -71 -5 -32 -8 -56 -21 -195 -2 -27 -9 -66 -15 -85 -6 -19
-13 -66 -16 -105 -3 -38 -12 -95 -20 -125 -8 -30 -17 -73 -20 -95 -10 -88 -14
-111 -24 -145 -6 -19 -13 -47 -16 -62 -16 -102 -17 -109 -27 -124 -4 -7 -11
-40 -16 -75 -5 -35 -14 -77 -21 -94 -13 -33 -14 -39 -24 -107 -4 -27 -11 -48
-17 -48 -5 0 -8 -3 -7 -7 3 -15 -24 -128 -38 -155 -8 -15 -14 -39 -14 -53 0
-14 -4 -33 -10 -43 -5 -9 -19 -51 -31 -92 -11 -41 -27 -100 -36 -130 -8 -30
-20 -61 -25 -67 -6 -7 -12 -30 -15 -50 -3 -21 -14 -55 -24 -75 -11 -21 -19
-43 -19 -50 0 -7 -6 -25 -14 -39 -7 -14 -16 -39 -20 -55 -8 -35 -44 -130 -61
-164 -7 -14 -18 -44 -24 -67 -6 -23 -18 -49 -26 -56 -8 -8 -12 -17 -9 -20 3
-3 -6 -29 -19 -59 -43 -92 -77 -175 -77 -187 0 -6 -4 -11 -8 -11 -4 0 -14 -20
-21 -45 -7 -25 -17 -45 -22 -45 -5 0 -9 -5 -9 -12 0 -9 -26 -68 -61 -140 -5
-10 -13 -26 -17 -35 -5 -10 -15 -29 -22 -43 -17 -32 -19 -36 -76 -155 -27 -55
-51 -102 -54 -105 -3 -3 -30 -53 -60 -112 -30 -60 -58 -108 -62 -108 -5 0 -8
-5 -8 -11 0 -10 -41 -85 -97 -177 -12 -21 -27 -49 -34 -64 -6 -16 -15 -28 -19
-28 -5 0 -12 -9 -15 -21 -4 -11 -24 -46 -44 -77 -21 -31 -64 -97 -97 -147 -32
-49 -61 -94 -64 -100 -14 -28 -64 -95 -71 -95 -5 0 -8 -3 -7 -7 2 -9 -33 -62
-86 -133 -19 -25 -35 -49 -35 -54 -1 -4 -19 -30 -41 -56 -22 -26 -40 -52 -40
-57 0 -5 -8 -16 -17 -25 -10 -9 -23 -23 -28 -30 -6 -7 -34 -43 -63 -80 -28
-37 -52 -70 -52 -72 0 -3 -14 -20 -31 -38 -17 -18 -38 -44 -47 -58 -9 -14 -22
-29 -29 -33 -7 -4 -13 -12 -13 -17 0 -5 -10 -20 -22 -33 -28 -28 -60 -66 -113
-132 -22 -27 -47 -57 -55 -66 -8 -9 -31 -36 -50 -59 -19 -24 -54 -63 -76 -87
-23 -23 -68 -73 -100 -110 -146 -165 -430 -449 -640 -640 -38 -34 -87 -79
-109 -99 -22 -20 -65 -58 -95 -83 -30 -25 -64 -55 -76 -66 -12 -11 -30 -27
-40 -35 -11 -8 -46 -37 -79 -65 -33 -27 -68 -57 -78 -65 -11 -8 -24 -19 -31
-25 -6 -5 -40 -32 -76 -59 -36 -27 -73 -58 -83 -68 -10 -10 -22 -18 -27 -18
-6 0 -18 -8 -28 -18 -10 -9 -33 -28 -51 -42 -18 -14 -38 -29 -44 -35 -7 -5
-35 -26 -62 -44 -28 -19 -52 -38 -55 -41 -3 -3 -18 -14 -34 -25 -16 -11 -39
-27 -51 -35 -67 -46 -81 -56 -93 -67 -7 -7 -20 -13 -28 -13 -8 0 -14 -4 -14
-8 0 -5 -16 -17 -35 -28 -19 -10 -35 -22 -35 -27 0 -4 -13 -13 -30 -18 -16 -6
-30 -14 -30 -18 0 -4 -11 -13 -25 -19 -14 -7 -31 -16 -38 -22 -19 -16 -148
-100 -153 -100 -3 0 -21 -12 -40 -26 -19 -15 -34 -22 -34 -18 0 5 -6 2 -13 -6
-7 -8 -23 -21 -37 -27 -14 -7 -43 -24 -65 -38 -22 -13 -56 -34 -75 -45 -19
-11 -53 -32 -75 -45 -22 -13 -56 -31 -75 -40 -19 -9 -37 -19 -40 -23 -3 -4
-31 -20 -63 -36 -31 -16 -60 -32 -62 -37 -3 -4 -19 -10 -35 -14 -17 -4 -30
-10 -30 -15 0 -4 -21 -17 -47 -30 -81 -37 -194 -97 -206 -109 -6 -6 -21 -11
-34 -11 -13 0 -26 -6 -29 -14 -5 -12 -34 -25 -57 -25 -4 0 -19 -9 -34 -21 -14
-11 -34 -20 -43 -20 -10 0 -23 -7 -30 -15 -7 -8 -16 -15 -21 -15 -5 0 -32 -11
-61 -24 -29 -13 -63 -27 -75 -31 -13 -3 -23 -10 -23 -15 0 -4 -12 -11 -27 -14
-16 -4 -46 -15 -68 -26 -151 -71 -216 -100 -225 -100 -6 0 -28 -9 -50 -20 -22
-11 -47 -21 -57 -23 -10 -2 -32 -11 -50 -20 -18 -9 -38 -17 -45 -17 -7 0 -30
-9 -50 -20 -20 -11 -48 -21 -62 -24 -14 -3 -36 -12 -48 -20 -12 -9 -32 -16
-43 -16 -11 0 -33 -7 -50 -16 -16 -9 -41 -18 -55 -20 -14 -3 -42 -14 -63 -24
-21 -11 -46 -20 -57 -20 -11 0 -36 -9 -57 -20 -21 -10 -51 -21 -66 -24 -16 -3
-35 -10 -42 -16 -8 -6 -29 -14 -47 -17 -18 -3 -49 -12 -68 -20 -19 -9 -51 -19
-70 -23 -19 -4 -55 -14 -80 -23 -126 -42 -177 -57 -196 -57 -11 0 -25 -5 -30
-10 -6 -6 -19 -12 -30 -15 -92 -21 -114 -27 -147 -40 -20 -8 -50 -15 -65 -15
-15 0 -40 -7 -56 -15 -16 -8 -54 -20 -85 -25 -60 -11 -63 -12 -101 -27 -14 -6
-43 -13 -65 -15 -22 -3 -50 -10 -61 -16 -12 -6 -48 -15 -80 -21 -32 -5 -72
-15 -89 -22 -16 -6 -40 -13 -51 -15 -66 -8 -98 -15 -116 -25 -11 -6 -48 -15
-82 -20 -84 -13 -90 -14 -101 -21 -10 -6 -58 -16 -105 -22 -14 -2 -38 -8 -53
-15 -16 -6 -61 -16 -100 -22 -40 -6 -76 -15 -82 -19 -9 -7 -47 -15 -127 -25
-15 -2 -36 -8 -46 -14 -16 -9 -34 -12 -142 -27 -19 -3 -53 -11 -75 -19 -22 -8
-60 -16 -85 -19 -25 -2 -58 -9 -73 -15 -28 -11 -47 -15 -127 -26 -24 -4 -53
-11 -65 -17 -11 -6 -29 -12 -40 -14 -86 -10 -106 -14 -122 -22 -17 -9 -61 -18
-129 -27 -18 -2 -56 -11 -85 -19 -30 -8 -70 -17 -89 -20 -19 -3 -53 -12 -75
-20 -22 -9 -52 -15 -66 -16 -14 0 -52 -9 -83 -20 -32 -11 -74 -21 -94 -24 -21
-2 -55 -11 -77 -19 -22 -9 -60 -18 -85 -21 -25 -3 -58 -12 -75 -20 -16 -8 -48
-16 -70 -19 -22 -2 -52 -10 -65 -17 -14 -7 -34 -14 -45 -16 -49 -6 -83 -15
-111 -28 -16 -8 -48 -17 -71 -20 -24 -3 -53 -12 -65 -20 -13 -7 -49 -17 -80
-21 -32 -3 -58 -10 -58 -15 0 -9 -40 -20 -93 -25 -19 -1 -44 -8 -55 -14 -36
-19 -111 -22 -159 -6 -24 8 -70 15 -101 15 -32 0 -63 5 -70 12 -7 7 -12 9 -12
5 0 -3 -11 -2 -25 3 -14 5 -70 12 -124 15 -56 3 -115 12 -137 21 -39 16 -73
21 -160 23 -33 1 -57 7 -70 18 -14 13 -40 19 -94 21 -43 2 -81 9 -90 17 -8 7
-51 16 -95 20 -44 3 -89 12 -100 20 -21 13 -82 24 -141 24 -16 1 -39 9 -50 19
-10 9 -32 16 -49 16 -16 -1 -61 9 -100 22 -67 24 -160 30 -171 13 -9 -15 35
-29 93 -29 42 0 65 -5 79 -17 11 -11 39 -19 68 -21 27 -2 70 -11 95 -21 25 -9
68 -18 96 -20 27 -1 66 -10 85 -18 19 -8 62 -17 94 -20 32 -2 77 -11 100 -19
55 -20 65 -22 122 -25 27 -1 63 -9 79 -17 17 -9 62 -19 100 -23 67 -6 95 -11
135 -24 29 -9 49 -12 134 -20 44 -4 91 -11 105 -17 35 -13 52 -16 127 -22 36
-3 84 -11 107 -17 73 -21 96 -25 202 -34 44 -4 89 -9 100 -12 30 -6 81 -12
165 -18 129 -9 204 -15 230 -20 14 -3 36 -8 50 -10 14 -3 86 -7 160 -10 143
-6 289 -14 355 -20 156 -14 320 -18 750 -18 440 0 583 3 695 18 44 5 178 13
340 20 69 3 136 7 150 10 45 9 153 19 325 30 89 6 143 12 154 20 6 3 66 10
191 20 67 5 98 10 128 19 9 3 40 8 67 11 110 13 131 15 153 19 12 3 26 7 30
10 9 5 66 14 146 22 33 3 67 9 75 14 9 4 39 11 66 15 45 6 92 13 120 19 6 1
15 5 22 9 6 4 46 12 88 17 41 5 84 14 93 19 19 10 151 36 165 33 4 -1 7 3 7
10 0 6 3 8 7 5 3 -4 11 -3 17 2 6 5 31 10 56 12 25 1 66 11 92 20 40 15 78 23
156 31 6 1 12 5 12 9 0 7 15 11 91 23 14 2 48 11 75 20 122 38 182 55 218 61
22 3 45 10 53 16 7 6 30 13 50 16 21 3 60 14 86 24 26 11 57 19 68 19 11 0 36
8 57 19 20 10 57 21 82 25 24 4 50 12 57 18 7 6 30 14 51 19 43 9 154 46 197
65 17 7 42 15 57 18 14 2 37 10 50 17 12 7 25 14 28 14 39 10 69 20 85 31 11
8 29 14 40 14 11 0 38 9 60 20 22 11 49 20 62 20 12 0 25 5 28 10 4 6 11 8 16
5 5 -4 9 -2 9 4 0 10 39 27 53 23 5 -2 23 7 42 18 18 11 39 20 46 20 8 0 30 9
50 19 19 11 46 21 60 23 13 1 30 8 37 15 7 7 27 17 45 22 51 15 147 57 160 70
6 6 20 11 32 11 12 0 30 7 41 15 10 8 37 20 59 26 22 6 47 17 55 24 8 7 26 15
40 17 13 1 33 11 42 20 10 10 26 18 36 18 9 0 31 9 47 20 17 11 37 20 46 20 9
0 26 9 39 20 20 18 42 25 54 18 2 -2 12 4 22 13 11 8 69 39 129 69 61 30 116
60 123 67 7 7 20 13 27 13 7 0 20 6 27 13 12 13 37 28 98 59 14 7 30 19 36 27
7 9 22 12 42 9 18 -2 32 -1 32 3 0 4 13 12 30 17 16 6 35 16 42 22 13 12 79
53 88 55 17 5 50 19 81 36 20 10 39 16 43 12 4 -4 9 3 13 15 5 20 17 26 50 25
7 0 15 8 18 18 4 11 14 19 24 19 10 0 30 9 44 20 14 11 30 20 36 20 5 0 19 10
31 22 11 12 20 18 20 14 0 -5 7 -3 15 4 8 7 15 9 15 6 0 -4 6 -1 14 6 8 7 12
16 9 20 -2 5 5 8 16 8 11 0 27 8 37 17 9 9 26 19 37 20 11 2 27 12 36 22 9 10
28 21 44 25 15 3 27 13 27 21 0 9 9 15 23 15 12 0 28 9 35 20 7 11 18 17 27
14 8 -4 15 -1 15 5 0 6 7 11 17 11 9 0 13 3 9 7 -7 7 28 29 96 59 21 9 35 20
33 25 -3 4 11 13 30 19 19 6 35 18 35 26 0 9 4 13 9 9 5 -3 12 -1 16 5 4 6 10
8 15 5 5 -3 12 4 15 16 4 13 12 18 21 15 9 -3 26 5 40 19 14 14 30 25 37 25
17 1 48 26 40 33 -3 4 4 7 16 7 13 0 32 11 43 25 11 14 24 23 28 20 5 -3 18 3
30 15 11 11 26 20 34 20 8 0 18 9 21 20 3 11 15 20 25 20 10 0 22 5 26 11 3 6
22 17 40 25 19 8 33 19 31 25 -1 6 6 13 15 14 21 4 49 30 41 39 -6 5 23 9 30
4 2 -2 41 28 71 57 12 11 24 19 28 18 3 -1 17 9 30 22 13 14 29 25 36 25 7 0
24 11 38 25 14 14 29 25 34 25 6 0 10 6 10 13 0 12 7 17 66 47 16 8 35 23 42
32 7 10 19 18 27 18 7 0 17 9 20 20 3 11 15 20 25 20 11 0 24 9 30 20 6 11 16
20 23 20 7 0 32 18 55 40 22 22 46 40 51 40 5 0 13 9 16 20 3 11 15 20 25 20
11 0 24 9 30 20 6 11 17 20 24 20 7 0 30 18 52 40 21 22 45 40 52 40 6 0 12 7
12 15 0 9 12 20 26 25 14 6 22 14 19 20 -3 5 0 10 8 10 8 0 25 10 38 23 13 12
49 43 78 67 30 25 81 71 113 102 31 32 59 58 62 58 9 0 66 62 66 71 0 5 5 9
10 9 10 0 35 20 118 98 25 23 50 42 55 42 4 0 5 5 2 10 -6 9 8 14 28 11 4 0 7
3 7 9 0 12 149 160 161 160 5 0 9 7 9 15 0 8 7 15 15 15 9 0 18 7 21 15 8 20
92 105 104 105 6 0 10 4 10 9 0 8 69 89 123 143 15 15 25 28 21 28 -3 0 12 19
35 41 22 23 41 46 41 51 0 5 5 6 10 3 6 -3 10 -2 10 3 0 4 33 42 73 84 112
117 142 151 142 158 0 13 33 39 40 32 4 -4 6 -2 5 3 -5 22 1 35 15 35 8 0 15
6 15 13 0 7 10 23 23 34 12 11 39 40 59 64 20 24 45 54 55 65 39 46 68 87 66
95 -2 4 6 11 17 14 11 4 20 15 20 26 0 10 6 19 14 19 7 0 20 8 27 17 12 14 12
16 -1 9 -8 -4 -6 0 4 8 11 9 23 16 28 16 4 0 7 3 6 8 -3 15 15 42 28 42 8 0
13 3 13 8 -1 4 0 10 1 15 1 4 3 13 4 20 1 6 7 11 14 9 7 -1 12 5 12 13 0 8 5
15 11 15 5 0 7 5 4 10 -3 5 0 10 8 10 7 0 20 11 27 25 7 14 17 25 21 25 5 0
16 14 24 30 9 17 20 28 25 25 6 -3 7 1 4 9 -3 8 5 25 18 38 13 12 28 32 34 43
6 11 15 19 20 18 6 -1 11 7 11 19 2 21 63 89 74 82 4 -2 12 9 19 25 6 16 18
32 26 35 8 3 14 13 14 22 0 10 7 24 15 33 33 35 63 77 69 98 4 11 13 24 21 27
8 3 15 12 15 19 0 8 9 22 20 32 11 10 20 22 20 26 0 10 42 73 64 94 9 9 16 20
16 25 0 5 6 15 13 22 7 7 28 38 47 68 19 30 40 61 47 68 7 7 13 17 13 21 0 4
8 16 18 27 9 10 23 30 29 44 17 33 34 60 56 84 9 11 17 23 17 27 0 8 38 68 65
104 8 10 15 24 15 31 0 6 9 21 20 34 11 13 20 29 20 36 0 7 6 19 13 26 7 7 30
43 51 80 21 37 42 70 47 74 5 3 9 13 9 23 0 10 7 24 16 31 8 8 22 27 30 44 25
53 89 165 102 178 7 7 12 20 12 29 0 10 5 21 10 24 6 3 19 23 29 43 44 87 55
107 61 112 4 3 11 16 15 30 4 14 16 37 26 52 11 14 19 33 19 41 0 9 4 19 10
22 5 3 26 41 46 83 20 42 44 85 52 95 8 9 12 17 8 17 -3 0 8 28 25 63 17 34
38 78 47 97 8 19 19 43 23 52 5 10 13 26 17 35 5 10 18 37 30 60 12 23 22 49
22 57 0 8 6 21 13 28 6 7 18 31 26 53 7 22 19 47 27 55 7 8 13 20 13 25 0 9
11 36 64 155 11 25 28 63 37 85 10 22 27 61 39 86 12 25 21 54 21 63 0 9 9 29
20 44 10 15 21 38 22 52 2 14 11 36 21 50 9 13 17 34 17 47 0 24 20 73 29 73
4 0 8 11 9 25 1 14 10 40 19 58 9 18 19 43 21 56 1 13 11 38 20 55 9 17 17 33
17 36 1 3 5 24 9 48 4 23 11 40 16 37 5 -3 11 14 15 37 4 24 15 59 25 78 25
49 50 127 60 184 5 27 14 52 20 56 6 4 13 20 15 36 2 16 6 49 10 74 3 25 10
47 16 49 31 10 46 40 48 97 1 32 6 61 10 64 19 12 33 56 33 97 -1 29 3 46 13
49 7 3 17 24 20 47 13 73 14 79 25 92 6 7 13 35 17 61 3 27 13 59 21 72 8 13
17 46 19 74 2 27 11 61 20 74 9 14 18 53 20 87 2 34 10 67 16 72 7 6 14 17 15
25 10 42 12 58 14 90 1 19 8 45 16 57 8 13 16 44 19 70 5 62 7 72 23 108 7 17
15 53 17 80 2 28 11 65 19 83 9 18 18 59 20 90 8 89 10 104 24 152 7 25 13 61
14 80 1 20 5 41 9 47 4 7 10 31 13 55 4 24 11 54 16 67 5 14 11 59 14 100 3
42 11 99 20 128 8 28 17 80 20 115 8 92 12 119 23 158 15 47 5 92 -28 127 -15
15 -40 46 -56 68 -32 44 -289 302 -348 350 -21 17 -56 47 -78 68 -22 20 -45
37 -49 37 -5 0 -13 6 -17 13 -8 13 -94 84 -147 122 -16 11 -40 30 -53 42 -14
12 -34 25 -44 28 -11 4 -19 10 -19 16 0 5 -15 16 -32 24 -18 8 -53 27 -78 41
-56 32 -115 36 -153 9 -14 -11 -27 -24 -27 -28 0 -5 -7 -15 -15 -23 -9 -9 -15
-34 -15 -61 0 -51 -19 -28 201 -239 134 -129 271 -280 348 -384 30 -41 63 -84
73 -94 10 -11 18 -23 18 -27 0 -4 6 -14 13 -21 18 -20 66 -95 69 -110 2 -7 11
-19 21 -26 9 -7 17 -20 17 -28 0 -8 9 -22 20 -31 11 -10 20 -27 20 -39 0 -11
9 -29 20 -39 11 -10 20 -25 20 -34 0 -9 9 -27 20 -41 11 -14 20 -32 20 -40 0
-8 9 -28 20 -45 11 -16 20 -38 20 -48 0 -11 9 -30 20 -44 11 -14 20 -35 20
-45 0 -11 8 -32 19 -46 30 -44 45 -96 36 -128 -5 -16 -7 -36 -6 -46 1 -9 -5
-34 -14 -55 -9 -21 -18 -60 -21 -88 -8 -87 -14 -118 -24 -131 -6 -6 -13 -34
-16 -60 -7 -64 -9 -73 -23 -109 -7 -16 -15 -48 -17 -70 -9 -66 -12 -79 -25
-110 -12 -29 -15 -49 -18 -114 0 -16 -7 -36 -13 -43 -15 -16 -18 -27 -25 -93
-3 -27 -13 -60 -21 -73 -8 -13 -17 -47 -19 -75 -2 -28 -11 -63 -20 -76 -8 -13
-17 -44 -20 -70 -3 -25 -12 -58 -20 -74 -17 -33 -25 -64 -24 -92 0 -10 -8 -33
-18 -50 -10 -16 -19 -50 -20 -75 -1 -26 -9 -50 -18 -57 -9 -7 -18 -37 -22 -73
-14 -118 -67 -117 -72 1 -1 35 -11 82 -21 104 -9 22 -18 57 -18 77 0 21 -9 60
-20 87 -10 28 -20 67 -22 88 -1 21 -10 56 -20 78 -10 22 -18 52 -18 66 0 15
-9 46 -19 70 -11 24 -21 62 -24 84 -3 22 -10 41 -16 43 -6 2 -13 20 -17 40 -3
20 -14 56 -25 79 -10 24 -19 51 -19 60 0 10 -9 33 -20 51 -11 18 -20 43 -20
56 0 13 -6 29 -14 35 -8 7 -18 26 -21 43 -4 17 -16 45 -26 62 -10 18 -20 41
-21 51 -2 11 -11 31 -21 45 -9 13 -17 30 -17 37 0 7 -9 27 -20 45 -11 18 -20
39 -20 46 0 8 -9 25 -20 39 -11 14 -20 34 -20 44 0 9 -6 24 -13 31 -7 7 -21
34 -31 61 -10 26 -22 47 -27 47 -5 0 -9 11 -9 25 0 14 -4 25 -9 25 -5 0 -16
17 -25 38 -10 20 -30 60 -46 87 -16 28 -37 64 -45 80 -8 17 -26 48 -39 70 -13
22 -31 51 -38 65 -44 76 -59 101 -97 163 -23 38 -64 102 -91 144 -28 41 -50
76 -50 79 0 3 -69 102 -98 139 -4 6 -23 34 -41 63 -19 30 -39 59 -45 66 -11
12 -18 22 -57 84 -12 17 -25 32 -30 32 -5 0 -9 6 -9 13 0 7 -8 20 -17 28 -10
9 -28 27 -40 41 -53 64 -151 95 -215 70 -34 -14 -78 -52 -78 -68 0 -7 -5 -14
-10 -16 -6 -2 -13 -24 -16 -49 -4 -35 0 -58 15 -92 12 -25 21 -50 21 -54 0 -4
10 -28 21 -53 12 -25 30 -63 39 -85 10 -22 27 -61 39 -88 11 -26 21 -60 21
-76 0 -16 7 -34 15 -41 8 -7 13 -16 10 -20 -3 -5 -1 -11 5 -15 5 -3 10 -18 10
-33 0 -15 7 -38 16 -50 8 -12 12 -22 8 -22 -3 0 -2 -6 4 -13 6 -7 13 -28 15
-47 3 -19 11 -51 20 -70 8 -19 17 -51 20 -70 3 -19 13 -53 21 -75 8 -22 15
-54 16 -70 0 -17 4 -35 8 -40 12 -14 33 -90 37 -136 3 -22 9 -48 14 -58 6 -10
13 -36 15 -57 3 -22 8 -59 11 -83 3 -24 9 -49 14 -55 5 -6 9 -13 9 -16 -1 -13
17 -142 27 -190 16 -79 25 -143 29 -205 3 -39 7 -77 10 -85 12 -35 21 -116 31
-290 3 -47 7 -98 10 -115 16 -98 20 -211 20 -565 0 -356 -4 -473 -20 -550 -3
-14 -7 -86 -10 -160 -7 -184 -13 -242 -30 -320 -3 -14 -8 -61 -11 -105 -4 -69
-10 -122 -20 -160 -9 -39 -15 -76 -19 -115 -3 -37 -16 -139 -19 -160 -1 -3 -5
-10 -9 -16 -4 -7 -9 -39 -12 -73 -4 -33 -13 -85 -21 -113 -8 -29 -17 -73 -20
-98 -2 -25 -14 -77 -24 -116 -11 -38 -20 -83 -20 -100 -1 -16 -8 -47 -16 -69
-8 -22 -17 -60 -21 -85 -3 -24 -14 -69 -24 -99 -11 -30 -19 -65 -19 -78 0 -13
-7 -37 -15 -52 -8 -16 -18 -48 -21 -72 -4 -24 -15 -62 -25 -84 -10 -22 -19
-50 -19 -63 0 -13 -8 -37 -17 -55 -9 -18 -18 -34 -18 -37 -1 -3 -5 -24 -9 -47
-4 -24 -12 -45 -16 -48 -5 -3 -14 -30 -20 -60 -6 -30 -15 -55 -19 -55 -4 0 -8
-6 -9 -12 -2 -32 -21 -88 -36 -109 -9 -13 -16 -34 -16 -46 0 -13 -9 -40 -20
-60 -11 -21 -20 -44 -20 -52 0 -7 -9 -32 -19 -55 -11 -23 -25 -56 -31 -73 -7
-18 -17 -33 -22 -33 -5 0 -6 -4 -3 -10 5 -8 -23 -83 -70 -185 -45 -97 -65
-145 -65 -154 0 -6 -4 -11 -10 -11 -5 0 -15 -20 -21 -45 -6 -25 -15 -45 -19
-45 -5 0 -14 -17 -21 -37 -6 -21 -16 -41 -21 -44 -5 -3 -10 -12 -11 -20 -2 -8
-10 -25 -20 -39 -9 -13 -17 -30 -17 -37 0 -6 -8 -18 -17 -25 -10 -7 -19 -18
-20 -25 -2 -6 -13 -23 -25 -37 -67 -74 -68 -75 -68 -97 0 -5 -4 -7 -10 -4 -5
3 -10 2 -10 -3 0 -6 -11 -20 -25 -33 -13 -13 -25 -28 -25 -33 0 -4 -11 -17
-25 -28 -13 -10 -24 -22 -22 -26 1 -4 -6 -16 -16 -27 -9 -11 -17 -23 -17 -27
0 -4 -21 -28 -45 -53 -25 -25 -45 -50 -45 -55 0 -6 -7 -10 -15 -10 -13 0 -20
-12 -12 -24 1 -2 -10 -14 -26 -26 -15 -12 -25 -25 -22 -29 2 -5 -7 -18 -20
-29 -14 -12 -25 -26 -25 -32 0 -5 -7 -10 -15 -10 -8 0 -15 -7 -15 -15 0 -9 -9
-19 -19 -23 -11 -4 -21 -11 -22 -17 -4 -24 -12 -35 -20 -29 -5 3 -9 1 -9 -4 0
-5 -20 -30 -44 -55 -24 -25 -41 -48 -38 -51 2 -3 -3 -8 -12 -12 -9 -3 -13 -10
-10 -15 3 -5 -1 -9 -8 -9 -7 0 -18 -10 -23 -22 -6 -13 -16 -22 -23 -20 -7 1
-12 -6 -12 -16 0 -10 -11 -25 -25 -32 -13 -7 -22 -17 -19 -22 3 -4 -5 -12 -18
-17 -13 -6 -19 -10 -15 -10 5 -1 -14 -24 -42 -52 -28 -28 -51 -55 -51 -61 0
-5 -4 -6 -10 -3 -5 3 -10 2 -10 -3 0 -5 -28 -38 -61 -73 -34 -35 -68 -74 -76
-86 -9 -13 -19 -20 -24 -17 -5 3 -9 -2 -9 -11 0 -9 -5 -13 -10 -10 -6 4 -9 2
-8 -3 3 -11 -229 -242 -243 -242 -5 0 -9 -5 -9 -11 0 -6 -18 -27 -41 -47 -23
-20 -57 -52 -76 -70 -19 -17 -39 -32 -44 -32 -6 0 -7 -5 -4 -10 3 -6 2 -10 -2
-10 -5 0 -38 -28 -73 -63 -36 -34 -68 -61 -72 -60 -4 2 -10 -6 -13 -17 -4 -11
-10 -20 -15 -20 -5 0 -32 -22 -61 -50 -29 -27 -56 -50 -61 -50 -5 0 -6 -5 -3
-10 3 -6 1 -10 -4 -10 -18 0 -22 -3 -89 -67 -36 -35 -70 -63 -77 -63 -7 0 -15
-10 -18 -22 -4 -12 -9 -19 -13 -15 -4 3 -15 -5 -26 -18 -10 -13 -27 -27 -38
-30 -11 -4 -18 -11 -15 -16 4 -5 0 -9 -7 -9 -15 0 -49 -26 -114 -87 -25 -24
-48 -43 -51 -43 -4 0 -13 -7 -22 -15 -34 -32 -79 -65 -89 -65 -6 0 -14 -9 -17
-20 -3 -11 -13 -20 -20 -20 -8 0 -25 -9 -37 -21 -40 -36 -127 -99 -137 -99 -5
0 -12 -9 -16 -20 -3 -11 -9 -19 -13 -18 -17 4 -52 -15 -52 -28 0 -8 -9 -14
-19 -14 -10 0 -21 -7 -25 -15 -3 -8 -17 -20 -31 -25 -14 -5 -25 -16 -25 -25 0
-9 -9 -15 -25 -15 -14 0 -29 -8 -35 -21 -7 -11 -14 -18 -17 -15 -3 2 -17 -6
-31 -20 -15 -13 -32 -24 -39 -24 -7 0 -13 -4 -13 -10 0 -5 -12 -16 -27 -24
-16 -8 -38 -22 -50 -33 -55 -47 -64 -53 -78 -53 -9 0 -18 -6 -21 -14 -3 -8
-18 -19 -34 -26 -16 -7 -31 -18 -33 -24 -3 -7 -19 -16 -37 -19 -19 -4 -29 -11
-25 -18 6 -9 -25 -24 -41 -19 -4 1 -10 -2 -13 -7 -9 -14 -97 -70 -120 -78 -12
-3 -21 -10 -21 -15 0 -5 -16 -14 -35 -20 -19 -6 -34 -16 -32 -22 1 -6 -11 -14
-27 -19 -17 -5 -34 -15 -38 -24 -5 -8 -18 -15 -29 -15 -10 0 -27 -9 -36 -20
-10 -11 -25 -20 -35 -20 -9 0 -23 -8 -30 -17 -7 -10 -20 -19 -28 -21 -8 -2
-22 -11 -30 -20 -8 -9 -23 -18 -33 -20 -10 -2 -27 -12 -38 -23 -10 -10 -27
-19 -37 -19 -10 0 -24 -9 -32 -20 -8 -11 -22 -20 -32 -20 -10 0 -27 -9 -38
-20 -11 -11 -29 -20 -40 -20 -11 0 -20 -7 -20 -15 0 -9 -12 -18 -29 -21 -17
-4 -38 -15 -47 -25 -9 -11 -26 -19 -36 -19 -10 0 -21 -7 -24 -15 -4 -8 -17
-15 -29 -15 -13 0 -31 -7 -39 -16 -9 -8 -16 -13 -16 -9 0 3 -15 -4 -32 -17
-42 -30 -81 -36 -76 -12 1 9 11 22 22 28 10 6 29 20 41 31 12 11 44 38 71 60
26 22 55 48 63 58 9 9 21 17 29 17 7 0 15 7 18 15 4 8 11 15 16 15 6 0 38 24
72 53 69 59 76 64 111 92 44 34 95 78 229 200 6 6 40 35 76 65 175 148 651
625 830 831 92 106 152 172 187 208 18 18 33 36 33 40 0 3 17 25 38 47 20 23
48 56 62 74 14 17 34 42 45 54 60 68 74 86 91 112 11 15 30 40 43 54 13 14 57
70 98 125 42 55 79 102 82 105 3 3 22 28 41 55 19 28 40 56 47 63 7 7 20 26
30 42 9 17 21 30 25 30 4 0 8 7 8 15 0 8 3 15 8 15 4 0 15 12 24 28 9 15 44
65 77 112 34 47 73 105 89 129 15 24 35 53 45 63 10 10 22 29 28 41 17 38 36
67 58 91 11 12 21 29 21 38 0 8 9 23 20 33 11 10 20 23 20 30 0 7 9 20 20 30
11 10 20 21 20 25 0 10 91 161 108 178 6 7 12 19 12 25 0 7 9 23 20 37 11 14
20 33 20 43 0 9 5 17 10 17 6 0 19 20 30 45 11 25 23 45 28 45 4 0 8 10 9 21
1 12 11 31 22 43 12 12 21 29 21 38 0 8 8 26 18 39 10 13 23 35 30 49 6 14 16
32 20 40 5 8 14 25 21 38 6 13 25 48 41 78 17 30 30 59 30 65 0 6 9 22 20 36
11 14 20 33 20 42 0 9 9 27 20 41 11 14 20 32 20 41 0 9 8 27 18 40 11 13 22
37 26 54 4 16 12 33 17 36 6 3 12 12 13 20 8 38 19 69 25 69 4 0 12 15 18 33
19 56 57 141 71 155 6 7 12 23 12 35 0 13 8 34 17 47 10 14 19 36 21 50 2 13
11 40 21 60 20 38 35 78 58 155 9 28 21 53 27 57 11 7 12 10 14 60 1 15 9 34
18 42 8 9 13 16 11 16 -3 0 4 24 15 53 11 28 26 72 33 97 7 25 20 62 29 82 9
21 16 45 16 55 0 10 7 32 16 48 9 17 18 45 21 64 2 18 11 48 20 65 9 17 18 46
20 65 2 18 11 50 19 70 8 20 18 54 21 76 3 22 9 48 14 58 6 9 7 17 3 17 -3 0
-1 6 5 14 7 8 14 36 17 63 3 26 12 66 20 88 9 22 18 60 21 85 3 25 11 63 19
85 7 22 15 54 18 70 2 17 8 50 11 75 4 25 12 56 18 70 5 14 11 50 14 80 2 30
11 79 19 109 8 29 17 77 20 105 9 108 19 181 24 181 4 0 10 47 15 115 10 141
18 209 30 250 3 8 7 62 9 120 3 58 8 168 12 245 10 189 10 524 1 665 -4 63
-10 169 -12 235 -4 113 -12 192 -21 206 -4 7 -13 114 -19 219 -2 36 -4 65 -5
65 -1 0 -3 7 -5 15 -17 66 -24 105 -28 170 -3 41 -12 94 -20 117 -9 22 -17 67
-18 98 -2 31 -11 80 -20 108 -10 29 -20 75 -23 102 -6 57 -9 70 -24 106 -6 14
-13 46 -16 70 -6 56 -9 69 -23 95 -7 11 -13 42 -14 67 -2 26 -6 47 -10 47 -10
0 -29 58 -29 90 0 15 -9 47 -19 71 -11 24 -21 61 -24 82 -3 20 -10 44 -16 51
-11 13 -19 38 -25 81 -2 11 -10 34 -19 52 -10 18 -17 40 -17 50 0 10 -6 30
-14 45 -15 28 -31 88 -28 101 1 4 -2 7 -8 7 -5 0 -14 19 -21 43 -6 23 -19 60
-29 82 -10 22 -28 64 -39 93 -50 124 -64 160 -83 202 -11 25 -22 54 -24 64 -2
11 -8 22 -13 25 -5 4 -13 20 -16 36 -4 17 -16 44 -27 62 -10 17 -21 42 -23 54
-3 12 -8 25 -13 28 -5 3 -14 21 -20 40 -7 19 -19 42 -27 51 -8 9 -16 26 -18
39 -2 12 -8 26 -14 29 -5 4 -15 22 -21 41 -7 19 -19 42 -27 51 -8 9 -16 26
-18 39 -2 12 -8 26 -14 29 -6 4 -14 18 -18 32 -4 14 -15 36 -24 50 -9 14 -22
36 -29 50 -6 14 -16 32 -21 40 -5 8 -12 22 -16 30 -3 8 -17 33 -30 55 -14 22
-32 55 -40 73 -8 17 -19 32 -23 32 -4 0 -13 12 -19 28 -7 15 -23 45 -37 67
-14 22 -33 55 -43 73 -9 17 -20 32 -25 32 -4 0 -8 6 -8 14 0 8 -11 28 -25 44
-14 17 -25 32 -25 35 0 9 -63 102 -72 105 -4 2 -8 9 -8 15 0 11 -41 69 -112
162 -90 116 -198 158 -271 106z"/>
<path d="M18505 14923 c-11 -3 -24 -9 -29 -14 -6 -5 -16 -9 -23 -9 -26 0 -103
-101 -103 -136 0 -10 -7 -32 -15 -47 -8 -16 -17 -50 -20 -75 -12 -96 -15 -114
-26 -135 -7 -11 -13 -41 -15 -66 -5 -55 -10 -81 -26 -118 -6 -15 -13 -50 -15
-78 -3 -27 -11 -63 -18 -80 -8 -16 -17 -46 -20 -65 -13 -82 -18 -100 -24 -100
-4 0 -8 -6 -9 -12 -4 -56 -17 -118 -30 -143 -9 -16 -17 -46 -19 -65 -6 -54 -8
-64 -20 -85 -6 -11 -16 -47 -22 -79 -6 -32 -15 -64 -20 -70 -6 -7 -14 -40 -20
-75 -6 -35 -16 -69 -22 -77 -7 -8 -14 -33 -16 -56 -2 -23 -12 -55 -21 -72 -9
-17 -18 -42 -20 -56 -4 -28 -75 -251 -103 -322 -11 -26 -19 -53 -19 -60 0 -8
-9 -33 -20 -56 -11 -22 -20 -48 -20 -57 0 -9 -8 -32 -19 -53 -10 -20 -21 -54
-25 -74 -4 -21 -11 -38 -15 -38 -5 0 -12 -17 -16 -37 -3 -21 -15 -55 -25 -75
-11 -20 -21 -48 -22 -61 -2 -14 -9 -31 -15 -39 -6 -7 -17 -35 -23 -61 -7 -26
-16 -47 -21 -47 -4 0 -11 -17 -15 -37 -4 -21 -15 -50 -25 -65 -11 -14 -19 -31
-19 -38 0 -6 -9 -30 -19 -53 -11 -24 -23 -55 -26 -70 -4 -15 -11 -27 -15 -27
-4 0 -13 -20 -19 -45 -6 -25 -15 -45 -20 -45 -5 0 -13 -15 -16 -32 -4 -18 -16
-49 -26 -68 -16 -32 -119 -248 -147 -310 -7 -14 -16 -33 -22 -42 -5 -10 -15
-26 -20 -35 -6 -10 -15 -29 -20 -43 -6 -14 -15 -32 -20 -40 -6 -8 -18 -31 -26
-50 -9 -19 -19 -37 -23 -40 -3 -3 -17 -27 -31 -55 -14 -27 -35 -64 -47 -83
-13 -18 -23 -38 -23 -43 0 -6 -13 -29 -29 -52 -26 -38 -53 -83 -85 -142 -6
-11 -37 -60 -68 -108 -32 -48 -58 -91 -58 -96 0 -5 -7 -15 -16 -22 -9 -7 -20
-22 -25 -34 -5 -11 -28 -45 -50 -75 -22 -30 -50 -70 -61 -87 -11 -18 -24 -33
-28 -33 -5 0 -11 -8 -15 -19 -3 -10 -13 -28 -23 -40 -31 -39 -92 -118 -126
-166 -11 -14 -28 -36 -39 -48 -10 -12 -28 -35 -40 -50 -23 -29 -41 -51 -95
-114 -17 -21 -41 -49 -53 -63 -25 -30 -138 -155 -197 -219 -119 -128 -377
-381 -388 -381 -2 0 -12 -8 -22 -17 -15 -15 -126 -114 -183 -164 -10 -8 -30
-24 -45 -35 -15 -10 -35 -26 -44 -34 -14 -13 -52 -43 -118 -95 -7 -5 -22 -18
-32 -27 -10 -9 -29 -22 -42 -29 -23 -12 -44 -29 -76 -61 -9 -10 -20 -18 -25
-18 -4 0 -34 -19 -65 -42 -31 -23 -100 -71 -152 -105 -52 -35 -100 -67 -106
-72 -5 -4 -21 -14 -35 -21 -13 -7 -26 -16 -29 -19 -3 -4 -16 -12 -30 -19 -23
-11 -134 -78 -170 -102 -8 -6 -27 -15 -42 -21 -16 -6 -28 -14 -28 -18 0 -5
-17 -15 -37 -24 -21 -9 -65 -32 -98 -51 -33 -19 -63 -32 -67 -29 -5 2 -8 0 -8
-5 0 -6 -35 -27 -77 -48 -43 -21 -86 -45 -95 -53 -10 -8 -18 -11 -18 -8 0 4
-42 -14 -92 -40 -51 -25 -113 -55 -138 -66 -25 -11 -63 -29 -85 -39 -22 -11
-47 -20 -55 -22 -8 -1 -29 -10 -47 -19 -18 -9 -41 -17 -52 -17 -10 0 -21 -4
-23 -10 -3 -11 -127 -60 -170 -67 -16 -3 -28 -8 -28 -12 0 -8 -58 -30 -97 -37
-15 -3 -30 -9 -33 -14 -3 -5 -23 -13 -45 -18 -22 -5 -64 -19 -93 -31 -29 -11
-56 -20 -60 -19 -4 1 -21 -5 -37 -14 -17 -9 -44 -18 -60 -20 -17 -3 -47 -12
-67 -21 -21 -8 -50 -18 -65 -20 -15 -3 -53 -12 -83 -21 -229 -69 -465 -131
-540 -142 -25 -3 -50 -10 -56 -15 -6 -5 -46 -14 -90 -20 -43 -6 -87 -15 -97
-20 -10 -6 -37 -12 -60 -15 -54 -6 -70 -9 -142 -28 -33 -8 -86 -17 -118 -21
-33 -3 -69 -10 -81 -15 -25 -9 -76 -18 -146 -26 -60 -6 -73 -8 -85 -16 -11 -6
-80 -16 -161 -23 -28 -2 -62 -9 -77 -14 -25 -10 -74 -17 -180 -26 -31 -3 -67
-9 -80 -14 -24 -9 -73 -16 -181 -26 -32 -3 -62 -8 -67 -11 -16 -10 -84 -20
-193 -29 -38 -3 -76 -10 -85 -15 -16 -8 -120 -22 -191 -25 -20 0 -41 -4 -48
-9 -7 -4 -12 -5 -12 -2 0 2 -14 1 -30 -4 -31 -9 -84 -16 -175 -24 -28 -3 -63
-10 -78 -15 -16 -6 -61 -14 -100 -17 -40 -3 -108 -14 -152 -24 -44 -10 -109
-21 -144 -24 -35 -3 -69 -10 -75 -15 -7 -6 -36 -13 -64 -16 -28 -2 -66 -7 -84
-11 -18 -3 -37 -7 -43 -8 -5 -1 -15 -5 -21 -9 -6 -3 -33 -9 -60 -12 -69 -8
-83 -11 -132 -29 -23 -8 -43 -15 -45 -14 -10 4 -108 -16 -112 -22 -3 -5 -27
-12 -53 -16 -72 -10 -79 -12 -100 -23 -19 -10 -67 -21 -107 -25 -11 -1 -31 -8
-44 -15 -13 -7 -34 -14 -46 -16 -21 -2 -96 -25 -205 -62 -25 -8 -61 -19 -80
-22 -19 -4 -49 -15 -67 -24 -18 -9 -39 -17 -48 -17 -9 0 -36 -9 -60 -20 -24
-11 -52 -21 -62 -23 -10 -2 -32 -11 -50 -20 -18 -9 -38 -17 -45 -17 -8 0 -31
-9 -53 -20 -22 -11 -46 -20 -55 -20 -9 0 -24 -6 -35 -14 -11 -7 -36 -18 -56
-25 -20 -6 -53 -20 -74 -31 -22 -11 -45 -20 -52 -20 -7 0 -13 -4 -13 -10 0 -5
-17 -12 -37 -16 -21 -4 -40 -10 -43 -14 -5 -8 -215 -110 -225 -110 -4 0 -18
-9 -32 -20 -14 -11 -32 -20 -39 -20 -7 0 -30 -11 -50 -25 -20 -14 -40 -23 -44
-20 -5 3 -10 2 -12 -3 -1 -4 -46 -31 -98 -60 -52 -29 -102 -57 -110 -62 -8 -5
-44 -26 -80 -46 -36 -21 -71 -44 -78 -51 -7 -7 -17 -13 -22 -13 -9 0 -73 -40
-97 -60 -7 -5 -15 -10 -19 -10 -4 0 -22 -11 -40 -25 -18 -14 -35 -25 -37 -25
-4 0 -133 -83 -152 -98 -5 -4 -25 -17 -42 -27 -18 -11 -33 -23 -33 -27 0 -4
-5 -8 -10 -8 -12 0 -153 -100 -158 -112 -2 -5 -8 -8 -14 -8 -6 0 -35 -19 -63
-42 -29 -24 -63 -50 -75 -58 -13 -8 -35 -25 -50 -37 -15 -13 -30 -23 -33 -23
-5 0 -43 -30 -78 -63 -10 -9 -22 -17 -25 -17 -3 0 -39 -27 -79 -60 -40 -33
-78 -60 -84 -60 -6 0 -11 -4 -11 -8 0 -5 -39 -41 -88 -79 -48 -39 -97 -80
-109 -90 -12 -10 -32 -27 -45 -37 -56 -46 -208 -177 -235 -203 -13 -13 -26
-23 -28 -23 -3 0 -13 -8 -24 -18 -10 -9 -42 -38 -72 -64 -66 -57 -127 -112
-154 -137 -11 -10 -24 -19 -29 -19 -5 0 -12 -6 -17 -14 -5 -7 -14 -13 -21 -13
-16 0 -15 -68 1 -73 6 -2 30 -22 54 -45 209 -201 317 -300 387 -357 30 -24 64
-54 75 -65 29 -28 148 -133 175 -153 61 -47 133 -106 162 -133 18 -17 44 -38
58 -47 14 -9 29 -22 33 -29 4 -7 14 -13 21 -13 7 0 21 -9 31 -20 10 -11 23
-20 29 -20 6 0 26 -16 43 -35 18 -19 36 -35 40 -35 3 0 16 -9 27 -19 12 -11
27 -21 35 -23 7 -2 31 -20 53 -40 21 -21 45 -38 52 -38 7 0 21 -9 31 -20 10
-11 24 -20 30 -20 7 0 15 -7 19 -15 3 -8 17 -20 31 -27 14 -6 25 -17 25 -25 0
-7 11 -13 25 -13 14 0 29 -8 35 -20 6 -11 17 -20 24 -20 7 0 23 -11 36 -25 12
-13 26 -22 30 -20 5 3 11 -2 14 -11 3 -8 19 -20 36 -25 16 -6 28 -14 25 -18
-2 -4 11 -15 30 -24 19 -9 35 -21 35 -27 0 -5 9 -10 19 -10 11 0 26 -9 34 -21
8 -11 23 -22 33 -24 11 -1 18 -8 17 -14 -3 -11 2 -13 37 -13 31 0 32 1 16 17
-8 8 -21 15 -29 15 -8 0 -17 7 -21 15 -3 8 -17 20 -31 27 -14 6 -25 17 -25 25
0 7 -3 12 -7 11 -16 -4 -51 13 -57 27 -3 8 -12 15 -20 15 -8 0 -21 9 -29 21
-8 11 -21 21 -30 23 -8 1 -22 9 -31 19 -10 9 -27 17 -38 17 -12 0 -18 3 -15 7
10 10 -13 33 -34 33 -10 0 -21 9 -24 20 -4 11 -9 19 -13 16 -12 -7 -54 13 -47
23 3 5 -5 13 -17 17 -12 4 -31 17 -41 30 -10 14 -23 21 -28 18 -6 -3 -18 1
-27 10 -52 51 -83 76 -92 76 -6 0 -9 4 -5 9 3 5 -5 13 -17 17 -13 4 -33 16
-44 28 -12 12 -34 32 -50 45 l-28 23 39 34 c22 19 48 41 58 49 9 8 19 15 21
15 3 0 17 12 33 28 51 49 105 92 114 92 5 0 9 4 9 10 0 5 12 16 28 24 15 8 43
30 62 50 19 19 38 36 42 36 3 0 25 18 47 40 22 22 43 40 47 40 3 0 43 30 88
67 44 37 86 71 91 75 6 4 47 37 92 73 45 36 86 65 90 65 5 0 14 9 21 20 7 11
17 20 23 20 6 0 35 20 63 45 29 25 58 45 65 45 6 0 11 4 11 9 0 5 8 12 18 15
9 3 37 24 61 46 24 22 45 40 47 40 3 0 71 44 89 57 60 46 85 63 94 63 6 0 16
9 23 20 7 11 20 20 28 20 8 0 21 9 28 20 7 11 18 20 26 20 7 0 20 7 27 16 7 9
22 20 34 25 11 5 40 25 65 43 25 19 50 35 56 35 6 1 19 10 29 21 10 11 22 20
26 20 5 0 35 18 66 40 32 22 63 40 69 40 6 0 17 7 24 15 7 9 40 31 74 51 72
41 83 48 156 94 30 20 70 42 88 49 17 7 32 17 32 22 0 5 9 9 19 9 11 0 22 4
25 9 10 15 137 83 143 77 3 -3 11 1 17 9 6 8 49 34 96 59 47 24 138 71 202
104 64 33 130 63 147 67 17 4 31 11 31 15 0 5 18 15 40 21 22 7 45 18 51 26 6
7 21 13 33 13 11 0 35 9 51 20 17 11 40 20 53 20 12 0 22 4 22 9 0 9 51 30 75
32 6 0 24 9 42 20 18 11 43 21 55 22 13 1 34 10 48 19 14 9 36 18 50 20 14 2
36 11 50 21 13 9 35 17 47 17 12 0 39 9 60 20 21 10 50 21 66 24 15 3 42 12
59 20 17 9 41 16 52 16 12 1 39 9 61 20 22 11 49 20 60 20 11 0 38 9 60 20 22
11 51 20 65 20 14 0 38 7 55 16 16 8 51 20 78 26 27 5 61 16 75 24 15 8 40 14
55 14 15 0 47 9 70 19 23 10 60 21 82 23 22 3 54 12 70 20 17 8 54 18 84 21
29 4 58 11 65 16 6 6 41 15 78 20 36 6 83 17 104 25 22 7 59 16 84 19 62 9 73
12 86 19 11 7 29 11 119 23 28 4 58 12 69 17 10 6 31 12 45 14 14 1 45 5 69 8
24 3 62 11 85 17 57 15 192 35 192 28 0 -1 9 3 20 9 20 10 38 13 155 27 30 4
80 13 110 20 30 8 86 17 125 20 38 4 74 10 80 13 5 4 12 7 15 7 51 8 116 16
159 20 29 3 57 8 62 11 15 9 77 19 189 29 35 4 67 8 70 10 14 9 83 19 195 30
38 4 76 10 85 15 8 4 17 8 20 8 3 0 25 3 50 6 25 3 61 8 80 10 19 2 77 13 129
25 52 11 98 18 102 15 4 -2 20 1 36 7 15 6 37 13 48 15 94 18 121 22 127 18 3
-2 9 0 13 6 4 6 11 8 16 5 5 -4 9 -1 9 4 0 6 3 10 8 9 4 -1 18 2 32 5 14 3 41
8 61 10 19 2 45 10 57 16 12 6 41 14 64 17 24 4 65 15 91 25 26 11 58 19 70
19 12 1 40 9 62 20 22 11 49 20 60 20 11 1 38 8 60 16 22 8 60 21 85 29 72 21
133 44 162 60 14 8 34 15 45 15 10 0 35 9 56 20 20 11 43 20 49 20 7 1 31 9
53 20 22 11 47 20 55 20 8 0 26 9 40 20 14 11 31 20 38 20 12 0 42 13 168 71
22 11 45 19 51 19 6 0 16 6 22 14 7 8 25 18 41 21 16 3 34 13 41 21 6 8 18 14
26 14 7 0 26 9 42 21 15 11 34 21 42 22 8 2 25 10 39 20 13 9 32 17 42 17 10
0 18 5 18 10 0 6 20 19 45 30 25 11 45 24 45 30 0 5 8 10 19 10 10 0 29 8 42
19 13 10 58 37 99 60 41 24 84 50 95 60 11 9 32 22 48 29 15 6 27 16 27 22 0
5 7 10 15 10 9 0 25 9 37 20 12 11 28 20 35 20 7 0 13 4 13 8 0 5 16 17 35 28
19 10 35 22 35 26 0 3 9 9 20 13 11 3 42 24 69 45 28 22 55 41 62 42 6 2 22
12 34 23 12 11 34 29 49 40 15 11 35 28 44 38 9 9 20 17 25 17 8 0 129 96 188
149 10 9 30 25 45 36 22 17 108 91 150 129 7 6 42 38 78 71 37 33 105 97 151
141 46 45 87 79 90 76 3 -3 5 0 5 7 0 6 26 38 58 70 78 80 166 175 232 251 30
35 65 74 78 86 12 13 22 27 22 31 0 7 54 72 94 113 18 19 66 80 86 110 8 13
34 47 58 76 23 29 42 55 42 59 0 6 70 99 100 132 11 12 20 29 20 38 0 8 4 15
9 15 9 0 39 43 70 99 8 14 22 34 33 45 10 11 18 26 18 33 0 7 4 13 10 13 5 0
17 15 25 33 17 35 38 73 54 97 47 69 61 93 61 106 0 8 6 17 14 20 8 3 19 18
25 32 12 29 24 50 58 99 13 17 23 38 23 47 0 8 4 18 10 21 5 3 28 44 51 91 23
46 45 87 50 90 5 3 9 13 9 22 0 9 9 28 20 42 11 14 20 31 20 38 0 8 9 26 19
41 10 14 21 35 23 46 1 11 11 29 21 39 9 11 17 25 17 32 0 7 18 50 41 96 62
125 78 160 85 191 3 15 10 27 15 27 4 0 11 17 15 38 4 20 15 48 25 62 10 14
20 36 21 50 2 14 11 36 21 50 9 13 17 36 17 51 0 15 6 32 14 38 8 7 18 27 22
44 3 18 14 48 24 67 9 19 20 52 24 73 4 20 11 37 16 37 4 0 12 15 16 33 4 17
9 35 10 40 1 4 2 13 3 21 0 8 7 21 14 28 6 7 14 27 16 43 1 17 10 44 19 60 9
17 17 35 18 40 1 6 4 21 7 35 3 14 12 42 21 62 9 21 16 48 16 62 0 14 5 28 10
31 6 4 8 10 5 15 -3 4 1 12 8 18 7 6 14 23 15 39 4 44 7 56 20 80 7 13 15 42
18 65 3 24 14 63 25 87 10 24 19 57 19 73 0 16 7 42 15 58 9 16 18 51 22 77 3
27 12 61 20 77 8 15 17 49 19 75 3 25 11 63 19 84 8 20 18 61 21 90 3 28 13
70 20 92 8 22 17 65 20 95 3 30 13 80 21 110 9 30 17 69 19 85 2 17 5 50 8 75
2 25 9 58 15 73 6 16 14 63 17 105 3 43 12 106 20 142 8 36 17 94 20 130 8
113 15 183 19 190 8 14 15 69 20 165 10 178 15 242 31 343 3 20 7 138 9 262 3
208 1 228 -17 264 -26 51 -59 83 -111 106 -42 20 -56 22 -92 13z"/>
<path d="M16291 12278 c-47 -25 -139 -112 -236 -223 -33 -37 -70 -78 -81 -89
-12 -12 -44 -47 -73 -79 -28 -31 -51 -54 -51 -50 0 4 -8 -4 -17 -17 -9 -14
-25 -31 -35 -38 -9 -7 -70 -64 -135 -126 -194 -187 -271 -258 -327 -301 -14
-11 -41 -33 -59 -50 -19 -16 -51 -43 -72 -60 -21 -16 -45 -38 -54 -47 -8 -10
-21 -18 -28 -18 -7 0 -13 -4 -13 -9 0 -5 -15 -18 -32 -30 -18 -11 -42 -28 -53
-38 -11 -10 -56 -45 -100 -78 -44 -32 -82 -62 -85 -65 -3 -3 -41 -31 -85 -60
-44 -30 -84 -60 -88 -67 -4 -7 -14 -13 -21 -13 -7 0 -21 -9 -31 -20 -10 -11
-24 -20 -30 -20 -7 0 -18 -7 -25 -15 -7 -8 -35 -29 -64 -46 -52 -31 -112 -71
-133 -89 -7 -5 -15 -10 -18 -10 -3 0 -19 -9 -35 -20 -17 -11 -43 -29 -60 -40
-16 -11 -36 -20 -45 -20 -8 0 -15 -5 -15 -10 0 -6 -17 -18 -37 -28 -21 -9 -41
-20 -44 -25 -5 -7 -83 -50 -169 -94 -19 -10 -37 -20 -40 -23 -6 -6 -60 -36
-112 -61 -20 -11 -39 -23 -42 -28 -4 -5 -20 -12 -36 -16 -17 -4 -30 -11 -30
-16 0 -5 -12 -12 -27 -15 -15 -4 -42 -18 -61 -30 -19 -13 -38 -21 -42 -19 -5
3 -11 1 -15 -4 -3 -6 -58 -35 -123 -66 -64 -31 -129 -62 -143 -70 -15 -8 -36
-16 -47 -18 -12 -2 -29 -10 -39 -19 -10 -8 -31 -19 -48 -22 -16 -4 -33 -13
-37 -19 -3 -6 -17 -12 -29 -14 -12 -2 -41 -12 -63 -22 -68 -32 -239 -99 -268
-105 -16 -4 -28 -11 -28 -16 0 -5 -17 -12 -37 -16 -21 -4 -54 -15 -73 -25 -19
-11 -42 -19 -50 -19 -9 0 -34 -9 -56 -19 -21 -10 -53 -21 -71 -24 -18 -3 -42
-12 -55 -21 -12 -9 -32 -16 -43 -16 -11 -1 -38 -9 -60 -20 -22 -11 -48 -19
-57 -20 -10 0 -39 -9 -66 -19 -26 -11 -61 -21 -78 -24 -16 -3 -42 -12 -59 -21
-16 -9 -43 -16 -60 -16 -16 0 -42 -6 -56 -14 -24 -12 -131 -42 -137 -37 -1 1
-15 -5 -30 -12 -15 -8 -48 -18 -75 -21 -26 -4 -59 -14 -75 -22 -15 -7 -42 -14
-60 -14 -18 0 -49 -7 -70 -16 -20 -8 -64 -20 -97 -26 -33 -5 -64 -11 -70 -12
-5 -1 -15 -4 -20 -8 -6 -3 -39 -11 -75 -18 -36 -6 -84 -18 -106 -25 -23 -8
-62 -15 -85 -16 -24 -2 -66 -10 -94 -20 -27 -9 -75 -19 -105 -22 -30 -3 -71
-11 -90 -16 -19 -6 -55 -14 -80 -17 -100 -12 -123 -16 -146 -24 -13 -5 -24 -7
-24 -4 0 4 -6 2 -12 -3 -12 -9 -40 -12 -133 -18 -16 0 -40 -5 -52 -9 -48 -16
-178 -33 -295 -39 -10 -1 -18 -4 -18 -7 0 -4 -6 -7 -12 -8 -7 0 -35 -3 -63 -7
-27 -3 -74 -8 -104 -11 -29 -2 -63 -10 -75 -16 -11 -6 -22 -10 -24 -9 -1 2
-28 0 -60 -3 -31 -3 -83 -8 -115 -11 -31 -3 -79 -10 -105 -16 -51 -11 -89 -16
-169 -23 -29 -3 -60 -9 -70 -14 -19 -10 -80 -20 -173 -27 -63 -5 -81 -8 -95
-17 -10 -6 -46 -12 -135 -23 -65 -8 -74 -10 -87 -18 -7 -4 -32 -10 -55 -12
-24 -2 -60 -7 -80 -11 -21 -3 -39 -5 -40 -3 -2 1 -14 -3 -26 -10 -13 -7 -45
-15 -70 -18 -26 -3 -66 -11 -90 -20 -24 -8 -64 -17 -90 -20 -26 -3 -67 -12
-92 -21 -25 -8 -61 -17 -80 -19 -19 -2 -60 -13 -90 -23 -30 -10 -71 -21 -90
-24 -41 -6 -196 -52 -225 -66 -11 -5 -38 -12 -59 -15 -22 -3 -44 -9 -50 -14
-6 -5 -29 -12 -51 -16 -22 -4 -62 -15 -90 -25 -27 -10 -90 -31 -140 -46 -49
-15 -94 -31 -100 -35 -5 -4 -30 -12 -55 -19 -25 -6 -59 -17 -75 -25 -17 -8
-42 -16 -55 -19 -14 -2 -39 -11 -56 -20 -17 -9 -43 -17 -58 -18 -14 -1 -26 -5
-26 -8 0 -6 -41 -22 -165 -66 -22 -8 -52 -21 -66 -29 -14 -7 -37 -16 -51 -19
-14 -2 -39 -11 -56 -20 -17 -9 -40 -17 -50 -19 -11 -2 -26 -8 -34 -13 -7 -6
-29 -16 -48 -23 -19 -7 -51 -20 -70 -28 -19 -9 -53 -23 -75 -33 -22 -10 -57
-25 -77 -35 -20 -10 -39 -17 -42 -16 -4 1 -27 -10 -54 -23 -81 -42 -158 -76
-170 -76 -7 0 -12 -4 -12 -10 0 -5 -5 -10 -11 -10 -6 0 -34 -12 -63 -26 -28
-14 -60 -28 -70 -30 -11 -2 -22 -7 -25 -12 -6 -7 -84 -47 -141 -71 -14 -6 -32
-15 -40 -19 -31 -18 -77 -42 -147 -76 -39 -19 -74 -39 -77 -45 -3 -5 -20 -12
-36 -16 -17 -4 -30 -10 -30 -15 0 -5 -9 -12 -21 -15 -18 -6 -201 -105 -249
-135 -8 -5 -48 -29 -88 -52 -99 -58 -110 -64 -162 -98 -25 -17 -57 -35 -73
-41 -15 -6 -27 -15 -27 -20 0 -5 -5 -9 -12 -9 -6 0 -26 -11 -44 -25 -18 -14
-35 -25 -39 -25 -3 0 -18 -8 -33 -19 -54 -37 -207 -136 -217 -140 -5 -2 -33
-21 -62 -43 -29 -21 -56 -38 -61 -38 -5 0 -17 -9 -27 -20 -10 -11 -24 -20 -32
-20 -7 0 -13 -4 -13 -8 0 -5 -18 -18 -40 -31 -22 -12 -40 -26 -40 -32 0 -5 -6
-9 -13 -9 -7 0 -23 -9 -35 -20 -12 -11 -24 -20 -27 -20 -3 0 -28 -17 -55 -37
-27 -21 -65 -49 -85 -63 -19 -14 -44 -32 -55 -40 -11 -8 -36 -26 -55 -40 -66
-46 -190 -138 -207 -154 -10 -9 -20 -16 -23 -16 -3 0 -32 -21 -64 -47 -32 -27
-68 -55 -80 -63 -13 -8 -33 -23 -44 -33 -12 -10 -37 -31 -56 -45 -19 -15 -41
-34 -49 -42 -29 -28 -76 -60 -89 -60 -7 0 -19 12 -26 27 -6 16 -21 36 -32 46
-11 10 -13 16 -5 12 8 -4 6 1 -4 9 -11 9 -24 16 -30 16 -5 0 -6 3 -3 7 4 4 -4
18 -17 32 -14 14 -26 33 -28 41 -2 8 -11 21 -20 28 -10 7 -18 22 -18 33 0 12
-7 19 -19 19 -31 0 -33 -15 -5 -43 14 -14 26 -34 27 -46 0 -11 4 -18 8 -15 4
2 15 -9 24 -24 10 -15 24 -31 32 -35 7 -4 13 -14 13 -22 0 -7 6 -20 13 -27 7
-7 21 -25 31 -40 10 -15 22 -25 27 -23 4 3 15 -8 24 -24 24 -48 65 -105 81
-114 8 -4 14 -12 14 -18 0 -15 260 -340 303 -378 9 -8 17 -21 17 -28 0 -6 6
-16 13 -20 8 -4 18 -15 23 -25 5 -9 25 -34 44 -55 84 -90 200 -222 200 -226 0
-5 59 -68 161 -173 27 -28 49 -54 49 -58 0 -4 44 -50 98 -102 53 -53 96 -101
94 -106 -1 -5 1 -8 5 -6 9 5 53 -38 47 -45 -2 -2 7 -10 21 -17 14 -7 25 -17
25 -21 0 -4 29 -36 65 -72 35 -35 61 -67 57 -71 -4 -4 -2 -6 5 -4 12 3 115
-97 107 -105 -3 -3 9 -10 26 -16 17 -6 29 -14 26 -19 -3 -5 1 -9 10 -9 18 0 9
38 -12 50 -18 10 -51 44 -86 87 -16 19 -28 30 -28 26 0 -4 -11 5 -24 21 -13
16 -92 97 -175 180 -83 84 -151 154 -151 157 0 2 -18 23 -40 45 -22 22 -40 45
-40 51 0 6 -4 9 -9 6 -14 -9 -21 22 -12 47 5 12 30 40 55 61 26 22 73 65 104
95 32 31 94 87 137 126 44 38 105 93 135 122 30 28 71 64 91 80 19 15 42 35
51 43 9 8 34 30 56 48 23 18 55 46 73 63 17 16 33 29 36 29 2 0 14 10 27 23
13 12 36 31 50 41 15 11 37 29 49 39 12 11 67 56 122 99 55 44 119 96 142 115
41 33 199 152 244 183 12 8 45 33 73 56 28 22 75 55 103 74 29 18 53 37 53 42
0 4 4 8 9 8 9 0 29 13 139 90 23 16 47 30 52 30 6 0 10 4 10 8 0 5 18 18 40
31 22 12 40 26 40 32 0 5 9 9 20 9 11 0 20 4 20 9 0 5 15 16 34 25 18 8 39 22
46 31 7 8 19 15 26 15 8 0 22 9 31 20 10 11 22 20 27 20 5 0 34 17 65 37 57
38 64 43 168 101 32 18 87 50 123 72 36 22 71 40 78 40 6 0 12 4 12 9 0 4 20
16 45 25 25 10 45 22 45 27 0 5 8 9 18 9 11 0 29 9 42 20 13 11 29 20 35 20 7
0 24 9 38 20 14 11 32 20 41 20 9 0 25 9 35 19 11 11 30 21 43 23 13 2 31 11
42 20 10 9 31 20 47 23 15 4 33 13 40 21 6 8 17 14 25 14 7 0 34 11 60 25 26
14 53 25 60 25 8 0 14 4 14 10 0 5 20 15 45 21 25 6 45 15 45 20 0 5 6 9 14 9
7 0 34 11 60 25 26 14 53 25 59 25 7 0 28 8 47 19 19 10 50 22 68 25 17 4 32
11 32 16 0 7 30 18 73 27 10 1 28 9 40 17 12 8 33 17 47 19 14 2 41 11 60 19
66 29 145 57 183 64 20 3 37 10 37 14 0 5 26 14 57 20 32 7 66 18 78 25 11 7
36 15 55 18 19 3 51 12 70 20 19 8 53 18 74 21 22 4 45 11 52 17 6 5 37 14 68
19 31 5 70 16 88 24 18 8 49 17 68 20 43 6 58 10 90 23 14 6 49 13 78 17 30 3
62 11 71 16 10 5 49 14 87 21 38 6 77 16 86 21 10 4 37 11 60 14 86 10 104 14
153 28 28 8 77 17 110 19 33 3 85 12 115 21 30 8 87 17 126 20 39 2 89 9 110
15 41 10 89 17 186 26 31 3 67 9 80 14 12 5 25 9 28 9 3 0 25 3 50 6 25 3 74
8 110 11 63 5 94 9 128 19 18 5 82 13 178 21 33 3 71 8 82 10 12 3 32 7 45 10
31 7 91 14 164 19 34 3 79 10 100 15 37 10 66 14 188 26 32 4 84 13 115 20 30
8 87 16 125 19 39 3 88 10 110 16 47 12 81 17 153 25 30 3 77 12 105 20 29 8
77 16 108 19 30 2 78 11 105 20 27 8 69 17 94 20 25 2 68 11 95 19 28 9 71 18
97 21 26 3 56 10 67 16 12 6 40 13 63 16 24 4 61 13 83 21 22 8 60 18 85 22
42 7 83 19 200 58 25 8 65 19 89 24 24 5 49 13 56 19 6 5 36 15 66 21 29 6 63
17 74 24 11 7 38 16 60 20 22 4 45 11 51 16 6 5 31 16 55 23 104 34 151 52
239 95 25 12 56 23 69 26 14 2 27 9 30 14 4 5 20 13 36 17 17 4 41 15 54 26
13 10 30 18 38 18 8 0 26 9 40 20 14 11 33 20 43 20 9 0 27 9 40 20 21 18 41
25 63 21 4 0 7 4 7 9 0 6 20 19 44 30 24 10 47 23 50 28 3 6 20 13 36 17 17 4
30 10 30 15 0 9 30 22 42 17 3 -1 17 8 30 19 13 12 33 25 46 29 12 3 22 10 22
15 0 5 16 14 35 20 19 6 35 15 35 19 0 4 16 15 35 24 19 9 35 21 35 27 0 5 8
10 18 10 10 0 27 7 37 15 35 27 96 65 103 65 4 0 13 9 20 20 7 11 16 20 22 20
5 0 29 14 52 30 24 17 54 38 68 48 14 9 27 19 30 23 3 3 20 14 38 23 17 9 32
21 32 26 0 6 5 10 11 10 10 0 44 24 89 63 8 7 57 46 108 87 50 41 92 78 92 82
0 4 5 8 10 8 6 0 18 8 28 18 11 9 36 31 58 48 21 18 55 48 74 67 19 20 38 33
42 31 4 -3 8 -1 8 4 0 12 138 152 150 152 4 0 10 4 12 9 2 5 66 75 143 157 77
81 152 161 168 176 15 16 27 34 27 39 0 5 4 9 8 9 4 0 24 21 45 48 20 26 48
61 62 77 15 17 39 45 53 64 15 19 32 39 38 45 6 6 15 18 20 27 8 15 67 88 104
129 8 9 16 23 18 31 2 7 7 16 10 19 14 11 72 89 72 98 0 5 9 17 20 27 11 10
20 23 20 29 0 7 9 19 20 29 11 9 20 24 20 32 0 8 4 15 8 15 5 0 17 16 28 35
10 19 21 35 25 35 4 0 12 14 19 30 7 17 16 30 21 30 5 0 9 5 9 12 0 6 10 25
23 42 12 17 28 42 35 56 7 14 21 39 32 55 11 17 28 47 40 67 11 20 24 39 30
43 5 3 10 14 10 24 0 9 9 27 20 39 11 12 20 26 20 33 0 6 9 22 20 36 11 14 20
32 20 39 0 7 6 19 13 26 18 19 103 195 119 248 13 39 12 50 -1 86 -25 65 -72
98 -145 102 -49 2 -70 -2 -105 -20z"/>
</g>
</svg>
