<svg width="1440" height="1400" viewBox="0 0 1440 1400" fill="none" xmlns="http://www.w3.org/2000/svg">
<g clip-path="url(#clip0_1716_1462)">
<g clip-path="url(#clip1_1716_1462)">
<path d="M0 0H1440V1H0V0Z" fill="#E52222"/>
<path d="M0 40H1440V41H0V40Z" fill="#E52222"/>
<path d="M0 80H1440V81H0V80Z" fill="#E52222"/>
<path d="M0 120H1440V121H0V120Z" fill="#E52222"/>
<path d="M0 160H1440V161H0V160Z" fill="#E52222"/>
<path d="M0 200H1440V201H0V200Z" fill="#E52222"/>
<path d="M0 240H1440V241H0V240Z" fill="#E52222"/>
<path d="M0 280H1440V281H0V280Z" fill="#E52222"/>
<path d="M0 320H1440V321H0V320Z" fill="#E52222"/>
<path d="M0 360H1440V361H0V360Z" fill="#E52222"/>
<path d="M0 400H1440V401H0V400Z" fill="#E52222"/>
<path d="M0 440H1440V441H0V440Z" fill="#E52222"/>
<path d="M0 480H1440V481H0V480Z" fill="#E52222"/>
<path d="M0 520H1440V521H0V520Z" fill="#E52222"/>
<path d="M0 560H1440V561H0V560Z" fill="#E52222"/>
<path d="M0 600H1440V601H0V600Z" fill="#E52222"/>
<path d="M0 640H1440V641H0V640Z" fill="#E52222"/>
<path d="M0 680H1440V681H0V680Z" fill="#E52222"/>
<path d="M0 720H1440V721H0V720Z" fill="#E52222"/>
<path d="M0 760H1440V761H0V760Z" fill="#E52222"/>
<path d="M0 800H1440V801H0V800Z" fill="#E52222"/>
<path d="M0 840H1440V841H0V840Z" fill="#E52222"/>
<path d="M0 880H1440V881H0V880Z" fill="#E52222"/>
<path d="M0 920H1440V921H0V920Z" fill="#E52222"/>
<path d="M0 960H1440V961H0V960Z" fill="#E52222"/>
<path d="M0 1000H1440V1001H0V1000Z" fill="#E52222"/>
<path d="M0 1040H1440V1041H0V1040Z" fill="#E52222"/>
<path d="M0 1080H1440V1081H0V1080Z" fill="#E52222"/>
<path d="M0 1120H1440V1121H0V1120Z" fill="#E52222"/>
<path d="M0 1160H1440V1161H0V1160Z" fill="#E52222"/>
<path d="M0 1200H1440V1201H0V1200Z" fill="#E52222"/>
<path d="M0 1240H1440V1241H0V1240Z" fill="#E52222"/>
<path d="M0 1280H1440V1281H0V1280Z" fill="#E52222"/>
<path d="M0 1320H1440V1321H0V1320Z" fill="#E52222"/>
<path d="M0 1360H1440V1361H0V1360Z" fill="#E52222"/>
<path d="M0 1400H1440V1401H0V1400Z" fill="#E52222"/>
<path d="M0 0H1V1400H0V0Z" fill="#E52222"/>
<path d="M40 0H41V1400H40V0Z" fill="#E52222"/>
<path d="M80 0H81V1400H80V0Z" fill="#E52222"/>
<path d="M120 0H121V1400H120V0Z" fill="#E52222"/>
<path d="M160 0H161V1400H160V0Z" fill="#E52222"/>
<path d="M200 0H201V1400H200V0Z" fill="#E52222"/>
<path d="M240 0H241V1400H240V0Z" fill="#E52222"/>
<path d="M280 0H281V1400H280V0Z" fill="#E52222"/>
<path d="M320 0H321V1400H320V0Z" fill="#E52222"/>
<path d="M360 0H361V1400H360V0Z" fill="#E52222"/>
<path d="M400 0H401V1400H400V0Z" fill="#E52222"/>
<path d="M440 0H441V1400H440V0Z" fill="#E52222"/>
<path d="M480 0H481V1400H480V0Z" fill="#E52222"/>
<path d="M520 0H521V1400H520V0Z" fill="#E52222"/>
<path d="M560 0H561V1400H560V0Z" fill="#E52222"/>
<path d="M600 0H601V1400H600V0Z" fill="#E52222"/>
<path d="M640 0H641V1400H640V0Z" fill="#E52222"/>
<path d="M680 0H681V1400H680V0Z" fill="#E52222"/>
<path d="M720 0H721V1400H720V0Z" fill="#E52222"/>
<path d="M760 0H761V1400H760V0Z" fill="#E52222"/>
<path d="M800 0H801V1400H800V0Z" fill="#E52222"/>
<path d="M840 0H841V1400H840V0Z" fill="#E52222"/>
<path d="M880 0H881V1400H880V0Z" fill="#E52222"/>
<path d="M920 0H921V1400H920V0Z" fill="#E52222"/>
<path d="M960 0H961V1400H960V0Z" fill="#E52222"/>
<path d="M1000 0H1001V1400H1000V0Z" fill="#E52222"/>
<path d="M1040 0H1041V1400H1040V0Z" fill="#E52222"/>
<path d="M1080 0H1081V1400H1080V0Z" fill="#E52222"/>
<path d="M1120 0H1121V1400H1120V0Z" fill="#E52222"/>
<path d="M1160 0H1161V1400H1160V0Z" fill="#E52222"/>
<path d="M1200 0H1201V1400H1200V0Z" fill="#E52222"/>
<path d="M1240 0H1241V1400H1240V0Z" fill="#E52222"/>
<path d="M1280 0H1281V1400H1280V0Z" fill="#E52222"/>
<path d="M1320 0H1321V1400H1320V0Z" fill="#E52222"/>
<path d="M1360 0H1361V1400H1360V0Z" fill="#E52222"/>
<path d="M1400 0H1401V1400H1400V0Z" fill="#E52222"/>
<path d="M1440 0H1441V1400H1440V0Z" fill="#E52222"/>
</g>
</g>
<rect x="0.5" y="0.5" width="1439" height="1399" stroke="#E52222"/>
<defs>
<clipPath id="clip0_1716_1462">
<rect width="1440" height="1400" fill="white"/>
</clipPath>
<clipPath id="clip1_1716_1462">
<rect width="1440" height="1400" fill="white"/>
</clipPath>
</defs>
</svg>
